#N canvas 237 89 479 315 10;
#X obj 35 102 dac~;
#X obj 138 -112 vsl 15 50 0 1 0 0 empty empty A 0 -9 0 10 -262130 -1
-1 0 1;
#X obj 215 -115 vsl 15 50 0 1 0 0 empty empty B 0 -9 0 10 -262130 -1
-1 0 1;
#X obj 124 -53 r Channel-A;
#X obj 305 -117 vsl 15 50 0 1 0 0 empty empty C 0 -9 0 10 -262130 -1
-1 0 1;
#X obj 381 -116 vsl 15 50 0 1 0 0 empty empty D 0 -9 0 10 -262130 -1
-1 0 1;
#X obj 363 -53 r Channel-D;
#X obj 284 -53 r Channel-C;
#X obj 197 -53 r Channel-B;
#X obj 35 -49 adc~;
#X obj 35 50 *~ 0.666667;
#X obj 35 72 e_pitchshift;
#X msg 142 39 pitch \$1;
#X obj 124 -31 * 24;
#X obj 124 -9 - 12;
#X msg 233 22 size \$1;
#X obj 197 -31 * 200;
#X connect 3 0 13 0;
#X connect 8 0 16 0;
#X connect 9 0 10 0;
#X connect 9 1 10 0;
#X connect 10 0 11 0;
#X connect 11 0 0 0;
#X connect 11 0 0 1;
#X connect 12 0 11 1;
#X connect 13 0 14 0;
#X connect 14 0 12 0;
#X connect 15 0 11 1;
#X connect 16 0 15 0;
