#N canvas 462 61 1044 863 10;
#X obj 622 621 vsl 15 50 0 1 0 0 empty empty A 0 -9 0 10 -262130 -1
-1 0 1;
#X obj 731 671 vsl 15 50 0 1 0 0 empty empty B 0 -9 0 10 -262130 -1
-1 0 1;
#X obj 525 583 vsl 15 50 0 1 0 0 empty empty C 0 -9 0 10 -262130 -1
-1 0 1;
#X obj 299 712 vsl 15 50 0 1 0 0 empty empty D 0 -9 0 10 -262130 -1
-1 0 1;
#X obj 288 805 r Channel-D;
#X obj 501 673 r Channel-C;
#X obj 45 28 adc~;
#X obj 299 770 s Channel-D;
#X obj 622 678 s Channel-A;
#X obj 732 732 s Channel-B;
#X msg 587 760 0;
#X obj 501 719 t f b;
#X msg 528 743 1;
#X obj 587 799 change;
#X obj 501 770 * 5000;
#X obj 525 641 s Channel-C;
#X obj 501 695 moses 0.9;
#X obj 501 792 + 500;
#X obj 679 772 r Channel-A;
#X obj 791 761 r Channel-B;
#X obj 863 728 loadbang;
#X msg 863 750 1;
#X obj 842 943 s start-time;
#X floatatom 839 918 5 0 0 0 - - -, f 5;
#X obj 841 846 vsl 15 50 0 1 0 0 empty empty B 0 -9 0 10 -262130 -1
-1 0 1;
#X floatatom 927 911 5 0 0 0 - - -, f 5;
#X obj 929 839 vsl 15 50 0 1 0 0 empty empty B 0 -9 0 10 -262130 -1
-1 0 1;
#X obj 930 936 s grain-size;
#X obj 411 678 lop~ 500;
#X obj 46 482 line~;
#N canvas 0 22 450 300 timebase 1;
#X obj 108 73 loadbang;
#X msg 108 95 1;
#X obj 108 139 f;
#X obj 135 139 + 1;
#X obj 108 161 s tick;
#X obj 108 117 metro 62.5;
#X connect 0 0 1 0;
#X connect 1 0 5 0;
#X connect 2 0 3 0;
#X connect 2 0 4 0;
#X connect 3 0 2 1;
#X connect 5 0 2 0;
#X restore 45 78 pd timebase;
#N canvas 0 22 432 550 record 0;
#X obj 44 114 t f f b;
#X obj 73 139 f;
#X obj 44 159 -;
#X obj 44 181 abs;
#X obj 44 225 sel 1;
#X obj 44 92 env~ 128;
#X obj 44 68 hip~ 1000;
#X obj 44 45 inlet~;
#X obj 44 489 tabwrite~;
#X msg 95 418 set sample-\$1;
#X obj 44 340 t b b;
#X obj 95 371 f;
#X obj 121 371 + 1;
#X obj 95 393 mod 8;
#X msg 44 362 start;
#X obj 138 93 delwrite~ in-del 50;
#X obj 126 458 delread~ in-del 50;
#X obj 275 44 table sample-0 22050;
#X obj 275 64 table sample-1 22050;
#X obj 275 84 table sample-2 22050;
#X obj 275 104 table sample-3 22050;
#X obj 275 124 table sample-4 22050;
#X obj 275 144 table sample-5 22050;
#X obj 275 164 table sample-6 22050;
#X obj 275 184 table sample-7 22050;
#X floatatom 202 380 5 0 0 0 - - -, f 5;
#X obj 44 203 > 10;
#X connect 0 0 2 0;
#X connect 0 1 1 1;
#X connect 0 2 1 0;
#X connect 1 0 2 1;
#X connect 2 0 3 0;
#X connect 3 0 26 0;
#X connect 4 0 10 0;
#X connect 5 0 0 0;
#X connect 6 0 5 0;
#X connect 7 0 6 0;
#X connect 7 0 15 0;
#X connect 9 0 8 0;
#X connect 10 0 14 0;
#X connect 10 1 11 0;
#X connect 11 0 12 0;
#X connect 11 0 13 0;
#X connect 12 0 11 1;
#X connect 13 0 9 0;
#X connect 13 0 25 0;
#X connect 14 0 8 0;
#X connect 16 0 8 0;
#X connect 26 0 4 0;
#X restore 45 52 pd record;
#X obj 46 504 tabread~ sample-0;
#X obj 46 102 r tick;
#X obj 46 146 int;
#X obj 46 168 change;
#X msg 153 460 set sample-\$1;
#N canvas 61 263 347 485 new-seq2 1;
#X obj 66 46 inlet;
#X msg 109 208 add2 \$1;
#X msg 66 263 1 8 1 5 4 2 1 8 6 7 2 1;
#X msg 193 173 set;
#X msg 93 356 set \, adddollar \$1;
#X msg 66 379 \$2;
#X obj 93 333 + 1;
#X obj 66 404 outlet;
#X obj 93 288 f;
#X obj 119 288 + 1;
#X obj 66 234 t b b;
#X obj 110 157 until;
#X obj 110 100 t b b;
#X obj 110 76 bng 15 250 50 0 empty empty empty 17 7 0 10 -262144 -1
-1;
#X obj 93 311 mod 5;
#X obj 134 73 inlet;
#X msg 110 129 12;
#X obj 109 185 random 9;
#X connect 0 0 10 0;
#X connect 1 0 2 0;
#X connect 2 0 5 0;
#X connect 3 0 2 0;
#X connect 4 0 5 0;
#X connect 5 0 7 0;
#X connect 6 0 4 0;
#X connect 8 0 9 0;
#X connect 8 0 14 0;
#X connect 9 0 8 1;
#X connect 10 0 2 0;
#X connect 10 1 8 0;
#X connect 11 0 17 0;
#X connect 12 0 16 0;
#X connect 12 1 3 0;
#X connect 13 0 12 0;
#X connect 14 0 6 0;
#X connect 15 0 12 0;
#X connect 16 0 11 0;
#X connect 17 0 1 0;
#X connect 17 0 7 0;
#X restore 46 214 pd new-seq2;
#X obj 46 190 t b;
#X obj 46 434 t b f;
#X obj 46 276 t f b;
#X obj 91 298 f;
#X obj 118 298 + 1;
#X obj 91 320 mod 2;
#X obj 46 344 pack f f;
#X msg 46 376 \$2 \$1;
#X obj 46 398 route 0 1;
#X obj 260 485 line~;
#X obj 260 507 tabread~ sample-0;
#X msg 260 461 0 \, 22050 500;
#X msg 367 463 set sample-\$1;
#X obj 260 437 t b f;
#X obj 476 462 line~;
#X obj 476 484 tabread~ sample-0;
#X msg 476 438 0 \, 22050 500;
#X msg 583 440 set sample-\$1;
#N canvas 61 263 347 485 new-seq2 0;
#X obj 66 46 inlet;
#X msg 109 208 add2 \$1;
#X msg 66 263 10 6 3 6 3 10 10 2 4 1 8 13;
#X msg 193 173 set;
#X msg 93 356 set \, adddollar \$1;
#X msg 66 379 \$1;
#X obj 93 333 + 1;
#X obj 66 404 outlet;
#X obj 93 288 f;
#X obj 119 288 + 1;
#X obj 66 234 t b b;
#X obj 110 157 until;
#X obj 110 100 t b b;
#X obj 110 76 bng 15 250 50 0 empty empty empty 17 7 0 10 -262144 -1
-1;
#X obj 93 311 mod 5;
#X obj 134 73 inlet;
#X obj 109 185 random 15;
#X msg 110 129 12;
#X connect 0 0 10 0;
#X connect 1 0 2 0;
#X connect 2 0 5 0;
#X connect 3 0 2 0;
#X connect 4 0 5 0;
#X connect 5 0 7 0;
#X connect 6 0 4 0;
#X connect 8 0 9 0;
#X connect 8 0 14 0;
#X connect 9 0 8 1;
#X connect 10 0 2 0;
#X connect 10 1 8 0;
#X connect 11 0 16 0;
#X connect 12 0 17 0;
#X connect 12 1 3 0;
#X connect 13 0 12 0;
#X connect 14 0 6 0;
#X connect 15 0 12 0;
#X connect 16 0 1 0;
#X connect 16 0 7 0;
#X connect 17 0 11 0;
#X restore 476 214 pd new-seq2;
#X obj 476 414 t b f;
#X obj 476 266 t f b;
#X obj 521 288 f;
#X obj 548 288 + 1;
#X obj 521 310 mod 2;
#X obj 476 334 pack f f;
#X msg 476 356 \$2 \$1;
#X obj 476 378 route 0 1;
#X obj 690 465 line~;
#X obj 690 487 tabread~ sample-0;
#X msg 690 441 0 \, 22050 500;
#X msg 797 443 set sample-\$1;
#X obj 690 417 t b f;
#X obj 476 192 del 250;
#X msg 46 458 0 \, 22050 500;
#N canvas 125 403 450 300 delay 0;
#X obj 57 73 inlet~;
#X obj 60 208 outlet~;
#X obj 203 71 inlet~;
#X obj 210 204 outlet~;
#X obj 72 124 delwrite~ yoL 10050;
#X obj 226 123 delwrite~ yoR 10050;
#X obj 365 146 *~ 0.5;
#X obj 113 147 *~ 0.5;
#X obj 74 171 delread~ yoL 500;
#X obj 226 159 delread~ yoR 500;
#X connect 0 0 1 0;
#X connect 0 0 4 0;
#X connect 2 0 3 0;
#X connect 2 0 5 0;
#X connect 6 0 5 0;
#X connect 7 0 4 0;
#X connect 8 0 1 0;
#X connect 8 0 6 0;
#X connect 9 0 3 0;
#X connect 9 0 7 0;
#X restore 585 159 pd delay;
#X obj 260 153 mod 40;
#X obj 260 175 sel 0 20;
#X obj 46 236 moses 8;
#X obj 476 236 moses 8;
#X obj 46 124 / 10;
#X obj 585 185 *~ 0.3;
#X obj 638 186 *~ 0.3;
#X obj 585 207 dac~;
#X obj 338 599 delwrite~ long-del 1000;
#X obj 338 621 delread~ long-del 1000;
#X obj 260 599 *~ 0.5;
#X obj 260 681 dac~;
#X obj 260 651 *~ 2;
#X obj 270 621 lop~ 5000;
#X obj 681 137 * 0.3;
#X obj 680 116 tgl 15 0 empty empty empty 17 7 0 10 -262144 -1 -1 0
1;
#X connect 0 0 8 0;
#X connect 1 0 9 0;
#X connect 2 0 15 0;
#X connect 3 0 7 0;
#X connect 5 0 16 0;
#X connect 6 0 31 0;
#X connect 6 0 72 0;
#X connect 6 1 31 0;
#X connect 6 1 72 1;
#X connect 10 0 13 0;
#X connect 11 0 14 0;
#X connect 11 1 12 0;
#X connect 12 0 13 0;
#X connect 14 0 17 0;
#X connect 16 0 11 0;
#X connect 16 1 10 0;
#X connect 18 0 22 0;
#X connect 19 0 27 0;
#X connect 20 0 21 0;
#X connect 23 0 22 0;
#X connect 24 0 22 0;
#X connect 25 0 27 0;
#X connect 26 0 27 0;
#X connect 29 0 32 0;
#X connect 32 0 83 0;
#X connect 33 0 77 0;
#X connect 34 0 35 0;
#X connect 35 0 38 0;
#X connect 35 0 73 0;
#X connect 36 0 32 0;
#X connect 37 0 75 0;
#X connect 38 0 37 0;
#X connect 38 0 70 0;
#X connect 39 0 71 0;
#X connect 39 1 36 0;
#X connect 40 0 44 0;
#X connect 40 1 41 0;
#X connect 41 0 42 0;
#X connect 41 0 43 0;
#X connect 42 0 41 1;
#X connect 43 0 44 1;
#X connect 44 0 45 0;
#X connect 45 0 46 0;
#X connect 46 0 39 0;
#X connect 46 1 51 0;
#X connect 47 0 48 0;
#X connect 48 0 83 0;
#X connect 49 0 47 0;
#X connect 50 0 48 0;
#X connect 51 0 49 0;
#X connect 51 1 50 0;
#X connect 52 0 53 0;
#X connect 53 0 83 0;
#X connect 54 0 52 0;
#X connect 55 0 53 0;
#X connect 56 0 76 0;
#X connect 57 0 54 0;
#X connect 57 1 55 0;
#X connect 58 0 62 0;
#X connect 58 1 59 0;
#X connect 59 0 60 0;
#X connect 59 0 61 0;
#X connect 60 0 59 1;
#X connect 61 0 62 1;
#X connect 62 0 63 0;
#X connect 63 0 64 0;
#X connect 64 0 57 0;
#X connect 64 1 69 0;
#X connect 65 0 66 0;
#X connect 66 0 83 0;
#X connect 67 0 65 0;
#X connect 68 0 66 0;
#X connect 69 0 67 0;
#X connect 69 1 68 0;
#X connect 70 0 56 0;
#X connect 71 0 29 0;
#X connect 72 0 78 0;
#X connect 72 1 79 0;
#X connect 73 0 74 0;
#X connect 74 0 37 1;
#X connect 74 1 56 1;
#X connect 75 0 40 0;
#X connect 76 0 58 0;
#X connect 77 0 34 0;
#X connect 78 0 80 0;
#X connect 79 0 80 1;
#X connect 82 0 83 0;
#X connect 83 0 85 0;
#X connect 83 0 86 0;
#X connect 85 0 84 0;
#X connect 85 0 84 1;
#X connect 87 0 79 1;
#X connect 87 0 78 1;
#X connect 88 0 87 0;
