#N canvas 592 97 907 854 10;
#X obj 35 669 dac~;
#X obj 411 -4 vsl 15 50 0 1 0 0 empty empty A 0 -9 0 10 -262130 -1
-1 0 1;
#X obj 520 46 vsl 15 50 0 1 0 0 empty empty B 0 -9 0 10 -262130 -1
-1 0 1;
#X obj 314 -43 vsl 15 50 0 1 0 0 empty empty C 0 -9 0 10 -262130 -1
-1 0 1;
#X obj 299 521 vsl 15 50 0 1 0 0 empty empty D 0 -9 0 10 -262130 -1
-1 0 1;
#X obj 288 614 r Channel-D;
#X obj 290 48 r Channel-C;
#X obj 35 -49 adc~;
#N canvas 0 22 450 278 (subpatch) 0;
#X array buffer 88200 float 0;
#X coords 0 1 88199 -1 200 140 1 0 0;
#X restore 592 -56 graph;
#X obj 35 630 *~;
#X obj 65 630 *~;
#X obj 78 601 line~;
#X obj 299 579 s Channel-D;
#X obj 411 53 s Channel-A;
#X obj 521 107 s Channel-B;
#X msg 376 135 0;
#X obj 290 94 t f b;
#X msg 317 118 1;
#X obj 376 174 change;
#X obj 290 145 * 5000;
#X obj 314 16 s Channel-C;
#X obj 290 70 moses 0.9;
#X obj 290 167 + 500;
#X obj 468 147 r Channel-A;
#X obj 580 136 r Channel-B;
#X obj 652 103 loadbang;
#X msg 652 125 1;
#X obj 631 318 s start-time;
#X floatatom 628 293 5 0 0 0 - - -, f 5;
#X obj 630 221 vsl 15 50 0 1 0 0 empty empty B 0 -9 0 10 -262130 -1
-1 0 1;
#X floatatom 716 286 5 0 0 0 - - -, f 5;
#X obj 718 214 vsl 15 50 0 1 0 0 empty empty B 0 -9 0 10 -262130 -1
-1 0 1;
#X obj 719 311 s grain-size;
#X obj 88 558 loadbang;
#X msg 88 580 1;
#X obj 411 517 lop~ 500;
#X msg 94 436 start \$1;
#X obj 35 -21 delwrite~ in-del 50;
#X obj 122 475 delread~ in-del 50;
#X obj 94 527 tabwrite~ buffer;
#X obj 121 370 del 100;
#X msg 148 415 stop;
#X obj 94 324 random 88100;
#X obj 94 234 metro 4000;
#X obj 94 256 t a a;
#X obj 151 190 random 4000;
#X obj 151 212 + 2000;
#X msg 88 199 1;
#X obj 127 296 bng 15 250 50 0 empty empty empty 17 7 0 10 -262144
-1 -1;
#X obj 385 406 line~;
#X obj 385 428 tabread~ buffer;
#X obj 122 497 *~ 1;
#X obj 121 392 t b b;
#X obj 94 346 t f b b;
#X msg 161 451 1;
#X obj 213 397 random 88100;
#X msg 268 458 stop;
#X obj 212 367 t b b b;
#X msg 190 451 0;
#X floatatom 213 419 5 0 0 0 - - -, f 5;
#X obj 266 431 del 100;
#X obj 385 460 dac~;
#X obj 378 274 random 88100;
#X obj 378 296 t f f;
#X obj 391 359 pack f f;
#X obj 391 245 bng 15 250 50 0 empty empty empty 17 7 0 10 -262144
-1 -1;
#X obj 403 318 + 44100;
#X msg 385 382 \$1 \, \$2 2000;
#X connect 1 0 13 0;
#X connect 2 0 14 0;
#X connect 3 0 20 0;
#X connect 4 0 12 0;
#X connect 6 0 21 0;
#X connect 9 0 0 0;
#X connect 10 0 0 1;
#X connect 11 0 10 1;
#X connect 11 0 9 1;
#X connect 15 0 18 0;
#X connect 16 0 19 0;
#X connect 16 1 17 0;
#X connect 17 0 18 0;
#X connect 19 0 22 0;
#X connect 21 0 16 0;
#X connect 21 1 15 0;
#X connect 23 0 27 0;
#X connect 24 0 32 0;
#X connect 25 0 26 0;
#X connect 28 0 27 0;
#X connect 29 0 27 0;
#X connect 30 0 32 0;
#X connect 31 0 32 0;
#X connect 33 0 34 0;
#X connect 34 0 11 0;
#X connect 36 0 39 0;
#X connect 38 0 51 0;
#X connect 40 0 52 0;
#X connect 41 0 39 0;
#X connect 42 0 53 0;
#X connect 43 0 44 0;
#X connect 44 0 42 0;
#X connect 44 0 48 0;
#X connect 44 1 45 0;
#X connect 45 0 46 0;
#X connect 46 0 43 1;
#X connect 47 0 43 0;
#X connect 49 0 50 0;
#X connect 50 0 61 0;
#X connect 50 0 61 1;
#X connect 51 0 39 0;
#X connect 52 0 57 0;
#X connect 52 1 41 0;
#X connect 53 0 36 0;
#X connect 53 1 40 0;
#X connect 53 2 54 0;
#X connect 54 0 51 1;
#X connect 55 0 36 0;
#X connect 55 0 59 0;
#X connect 56 0 39 0;
#X connect 57 0 55 0;
#X connect 57 1 60 0;
#X connect 57 2 58 0;
#X connect 58 0 51 1;
#X connect 60 0 56 0;
#X connect 62 0 63 0;
#X connect 63 0 64 0;
#X connect 63 1 66 0;
#X connect 64 0 67 0;
#X connect 65 0 62 0;
#X connect 66 0 64 1;
#X connect 67 0 49 0;
