#N canvas 237 89 483 458 10;
#X obj 35 202 dac~;
#X obj 138 -112 vsl 15 50 0 1 0 0 empty empty A 0 -9 0 10 -262130 -1
-1 0 1;
#X obj 215 -115 vsl 15 50 0 1 0 0 empty empty B 0 -9 0 10 -262130 -1
-1 0 1;
#X obj 124 -53 r Channel-A;
#X obj 305 -117 vsl 15 50 0 1 0 0 empty empty C 0 -9 0 10 -262130 -1
-1 0 1;
#X obj 381 -116 vsl 15 50 0 1 0 0 empty empty D 0 -9 0 10 -262130 -1
-1 0 1;
#X obj 363 -53 r Channel-D;
#X obj 284 -53 r Channel-C;
#X obj 197 -53 r Channel-B;
#X obj 83 3 adc~;
#X obj 83 51 *~ -4.4;
#X obj 35 84 pow~ 2;
#X obj 35 61 sig~ 2;
#X obj 35 106 *~ 440;
#X obj 35 128 osc~;
#X obj 35 180 *~;
#X obj 123 94 +~ 0.0585;
#X obj 83 29 +~ 0.0585;
#X connect 9 0 17 0;
#X connect 9 1 16 0;
#X connect 10 0 11 1;
#X connect 11 0 13 0;
#X connect 12 0 11 0;
#X connect 13 0 14 0;
#X connect 14 0 15 0;
#X connect 15 0 0 0;
#X connect 16 0 15 1;
#X connect 17 0 10 0;
