#N canvas 638 187 550 544 10;
#X obj 35 222 dac~;
#X obj 91 92 *~ 0.8;
#X obj 138 -62 vsl 15 50 0 1 0 0 empty empty A 0 -9 0 10 -262130 -1
-1 0 1;
#X obj 215 -65 vsl 15 50 0 1 0 0 empty empty B 0 -9 0 10 -262130 -1
-1 3000 1;
#X obj 124 -3 r Channel-A;
#X obj 381 -66 vsl 15 50 0 1 0 0 empty empty D 0 -9 0 10 -262130 -1
-1 4500 1;
#X obj 363 -3 r Channel-D;
#X obj 124 20 * 0.98;
#X obj 284 -3 r Channel-C;
#X obj 197 -3 r Channel-B;
#X text 304 -95 HIP;
#X text 136 -90 FB;
#X text 214 -93 TIME;
#X text 377 -97 LOP;
#X obj 35 1 adc~;
#X obj 220 113 delwrite~ del-1 950;
#X obj 220 135 vd~ del-1;
#X obj 344 121 osc~;
#X msg 303 -155 \; pd dsp 1;
#X obj 303 -177 loadbang;
#X obj 344 89 sig~ 0.05;
#X obj 76 43 *~ 1;
#X obj 91 136 delread~ del-2 95;
#X obj 344 214 *~ 100;
#X obj 344 236 +~ 150;
#X obj 379 120 phasor~;
#X obj 344 183 *~;
#X obj 378 24 pow 4;
#X obj 378 46 * 8;
#X obj 379 143 *~ 1;
#X obj 428 120 sig~ 1;
#X obj 428 144 *~ 0;
#X obj 302 -63 vsl 15 50 0 1 0 0 empty empty C 0 -9 0 10 -262130 -1
-1 4900 1;
#X obj 444 62 swap 1;
#X obj 444 84 -;
#X obj 298 27 f;
#X obj 197 20 f;
#X obj 91 114 delwrite~ del-2 1000;
#X obj 197 64 + 50;
#X obj 197 42 * 450;
#X connect 1 0 37 0;
#X connect 2 0 7 0;
#X connect 3 0 36 0;
#X connect 4 0 7 0;
#X connect 5 0 27 0;
#X connect 6 0 27 0;
#X connect 7 0 1 1;
#X connect 8 0 35 0;
#X connect 9 0 36 0;
#X connect 14 0 0 0;
#X connect 14 0 21 0;
#X connect 14 1 0 1;
#X connect 14 1 21 0;
#X connect 16 0 1 0;
#X connect 16 0 0 1;
#X connect 16 0 0 0;
#X connect 17 0 26 0;
#X connect 19 0 18 0;
#X connect 20 0 17 0;
#X connect 20 0 25 0;
#X connect 21 0 15 0;
#X connect 22 0 15 0;
#X connect 23 0 24 0;
#X connect 24 0 16 0;
#X connect 25 0 29 0;
#X connect 26 0 23 0;
#X connect 27 0 28 0;
#X connect 28 0 20 0;
#X connect 29 0 26 1;
#X connect 30 0 31 0;
#X connect 31 0 26 1;
#X connect 32 0 35 0;
#X connect 33 0 34 0;
#X connect 33 1 34 1;
#X connect 34 0 31 1;
#X connect 35 0 33 0;
#X connect 35 0 29 1;
#X connect 36 0 39 0;
#X connect 38 0 22 0;
#X connect 39 0 38 0;
