#N canvas 546 22 1007 954 10;
#X obj 454 472 sel 0;
#X obj 454 449 mod 16;
#X obj 430 276 int;
#X obj 305 401 t f f;
#X obj 305 565 f;
#X obj 305 445 sel 0;
#X obj 430 381 unpack f f;
#X msg 502 354 8 16;
#X msg 470 354 8 8;
#X msg 542 354 4 8;
#X msg 572 354 2 8;
#X obj 305 774 t a b;
#N canvas 116 136 468 434 hip 0;
#X obj 50 80 inlet~;
#X obj 160 80 inlet~;
#X obj 50 343 outlet~;
#X obj 160 345 outlet~;
#X obj 119 148 f;
#X obj 229 148 f;
#X obj 50 183 hip~ 5;
#X obj 50 203 hip~ 5;
#X obj 50 223 hip~ 5;
#X obj 50 243 hip~ 5;
#X obj 50 266 hip~ 5;
#X obj 160 183 hip~ 5;
#X obj 160 203 hip~ 5;
#X obj 160 223 hip~ 5;
#X obj 160 244 hip~ 5;
#X obj 160 267 hip~ 5;
#X obj 319 21 r settings-change;
#X msg 319 43 0;
#X obj 229 45 r re-trigger;
#X obj 229 87 f;
#X obj 64 317 *~ 2;
#X obj 174 317 *~ 2;
#X obj 256 87 + 50;
#X obj 174 295 bp~ 100 3;
#X obj 64 295 bp~ 100 3;
#X obj 283 67 r decay-hip;
#X floatatom 314 92 5 0 0 0 - - -, f 5;
#X obj 229 117 min 20000;
#X connect 0 0 6 0;
#X connect 1 0 11 0;
#X connect 4 0 6 1;
#X connect 4 0 7 1;
#X connect 4 0 8 1;
#X connect 4 0 9 1;
#X connect 4 0 10 1;
#X connect 4 0 24 1;
#X connect 5 0 11 1;
#X connect 5 0 12 1;
#X connect 5 0 13 1;
#X connect 5 0 14 1;
#X connect 5 0 15 1;
#X connect 5 0 23 1;
#X connect 6 0 7 0;
#X connect 7 0 8 0;
#X connect 8 0 9 0;
#X connect 9 0 10 0;
#X connect 10 0 2 0;
#X connect 10 0 24 0;
#X connect 11 0 12 0;
#X connect 12 0 13 0;
#X connect 13 0 14 0;
#X connect 14 0 15 0;
#X connect 15 0 3 0;
#X connect 15 0 23 0;
#X connect 16 0 17 0;
#X connect 17 0 19 0;
#X connect 18 0 19 0;
#X connect 19 0 22 0;
#X connect 19 0 27 0;
#X connect 20 0 2 0;
#X connect 21 0 3 0;
#X connect 22 0 19 1;
#X connect 23 0 21 0;
#X connect 24 0 20 0;
#X connect 25 0 22 1;
#X connect 25 0 26 0;
#X connect 27 0 5 0;
#X connect 27 0 4 0;
#X restore 305 852 pd hip;
#X obj 640 588 metro 764.331;
#X obj 715 485 line;
#X obj 715 533 * 714.331;
#X obj 715 555 + 50;
#X obj 674 533 sel 1;
#X msg 674 558 0;
#X msg 655 452 1;
#X obj 305 650 f;
#X obj 831 560 * 764.331;
#X obj 831 509 sel 0 1 2;
#X msg 831 535 0;
#X msg 864 536 7;
#X obj 715 510 pow 4;
#X obj 478 327 t b b;
#X msg 350 580 0;
#X msg 380 580 1;
#X obj 640 423 t b b b b b;
#X msg 715 465 0 \, 1 1528.66;
#X obj 305 606 spigot 1;
#X obj 454 493 random 8;
#X obj 831 485 random 2;
#X obj 36 266 adc~;
#N canvas 0 22 450 278 (subpatch) 0;
#X array buffer-1 44100 float 0;
#X coords 0 1 44099 -1 100 70 1 0 0;
#X restore 35 51 graph;
#N canvas 219 318 659 656 record 0;
#X obj 44 154 t f f b;
#X obj 73 179 f;
#X obj 44 199 -;
#X obj 44 221 abs;
#X obj 44 265 sel 1;
#X obj 44 84 hip~ 1000;
#X obj 44 31 inlet~;
#X obj 44 243 > 10;
#X obj 44 110 *~ 1;
#X msg 44 523 start;
#X obj 44 337 f;
#X obj 70 337 + 1;
#X obj 44 359 mod 2;
#X obj 44 401 sel 0 1;
#X obj 44 443 t b b;
#X obj 56 56 delwrite~ in-del-L 5;
#X obj 57 553 delread~ in-del-L 5;
#X obj 309 245 metro 1000;
#X obj 309 169 loadbang;
#X msg 309 191 1;
#X msg 471 180 0;
#X obj 385 139 t f b;
#X msg 412 163 1;
#X obj 471 219 change;
#X obj 385 190 * 5000;
#X obj 385 115 moses 0.9;
#X obj 385 212 + 500;
#X obj 385 93 r rewrite-freq;
#X obj 44 132 env~ 128;
#X obj 44 579 tabwrite~ buffer-1;
#X msg 194 523 start;
#X obj 194 443 t b b;
#X obj 194 579 tabwrite~ buffer-2;
#X obj 266 412 s writing-into;
#X obj 44 313 r re-record;
#X connect 0 0 2 0;
#X connect 0 1 1 1;
#X connect 0 2 1 0;
#X connect 1 0 2 1;
#X connect 2 0 3 0;
#X connect 3 0 7 0;
#X connect 5 0 8 0;
#X connect 6 0 5 0;
#X connect 6 0 15 0;
#X connect 7 0 4 0;
#X connect 8 0 28 0;
#X connect 9 0 29 0;
#X connect 10 0 11 0;
#X connect 10 0 12 0;
#X connect 11 0 10 1;
#X connect 12 0 13 0;
#X connect 12 0 33 0;
#X connect 13 0 14 0;
#X connect 13 1 31 0;
#X connect 14 0 9 0;
#X connect 16 0 29 0;
#X connect 16 0 32 0;
#X connect 18 0 19 0;
#X connect 19 0 17 0;
#X connect 20 0 23 0;
#X connect 21 0 24 0;
#X connect 21 1 22 0;
#X connect 22 0 23 0;
#X connect 23 0 17 0;
#X connect 24 0 26 0;
#X connect 25 0 21 0;
#X connect 25 1 20 0;
#X connect 26 0 17 1;
#X connect 27 0 25 0;
#X connect 28 0 0 0;
#X connect 30 0 32 0;
#X connect 31 0 30 0;
#X connect 34 0 10 0;
#X restore 36 296 pd record;
#N canvas 0 22 450 300 debounce 0;
#X msg 155 74 0;
#X msg 177 112 1;
#X obj 85 66 spigot 1;
#X obj 85 92 t a b b;
#X obj 85 44 inlet;
#X obj 85 153 outlet;
#X obj 147 44 inlet;
#X obj 108 129 del 12000;
#X connect 0 0 2 1;
#X connect 1 0 2 1;
#X connect 2 0 3 0;
#X connect 3 0 5 0;
#X connect 3 1 7 0;
#X connect 3 2 0 0;
#X connect 4 0 2 0;
#X connect 6 0 7 1;
#X connect 7 0 1 0;
#X restore 640 400 pd debounce;
#N canvas 0 22 450 300 timebase 0;
#X obj 90 144 loadbang;
#X msg 90 166 1;
#X obj 90 188 metro 62.5;
#X obj 90 210 f;
#X obj 116 210 + 1;
#X obj 90 232 s tick;
#X msg 147 121 60000 \$1;
#X obj 147 143 /;
#X obj 147 165 / 8;
#X obj 147 99 r tempo;
#X msg 210 86 120;
#X connect 0 0 1 0;
#X connect 1 0 2 0;
#X connect 2 0 3 0;
#X connect 3 0 4 0;
#X connect 3 0 5 0;
#X connect 4 0 3 1;
#X connect 6 0 7 0;
#X connect 7 0 8 0;
#X connect 8 0 2 1;
#X connect 9 0 6 0;
#X connect 10 0 6 0;
#X restore 35 239 pd timebase;
#X obj 305 380 r tick;
#X obj 305 802 s_playtable;
#X obj 305 900 dac~;
#X obj 338 828 s_playtable;
#X obj 305 628 * 500;
#X obj 305 423 mod 2;
#X msg 430 354 16 16;
#X msg 602 354 1 8;
#X obj 430 298 sel 0 1 2 3 4 5;
#N canvas 0 22 450 278 (subpatch) 0;
#X array buffer-2 44100 float 0;
#X coords 0 1 44099 -1 100 70 1 0 0;
#X restore 35 137 graph;
#X obj 350 648 r writing-into;
#X obj 305 672 pack f f;
#X msg 305 694 \$2 \$1;
#X obj 305 716 route 1 0;
#X obj 34 405 r tick;
#X obj 34 427 mod 8;
#X obj 34 449 sel 0;
#X obj 34 533 s stutter-speed;
#X obj 430 251 r stutter-speed;
#X obj 145 533 s re-record;
#X obj 87 405 random 6;
#X obj 533 251 hsl 128 15 0 4 0 0 empty empty empty -2 -8 0 10 -262144
-1 -1 0 1;
#X obj 186 38 vsl 15 50 0 1 0 0 empty empty A 0 -9 0 10 -262130 -1
-1 0 1;
#X obj 259 38 vsl 15 50 0 1 0 0 empty empty B 0 -9 0 10 -262130 -1
-1 0 1;
#X obj 186 123 r Channel-A;
#X obj 333 39 vsl 15 50 0 1 0 0 empty empty C 0 -9 0 10 -262130 -1
-1 0 1;
#X obj 407 40 vsl 15 50 0 1 0 0 empty empty D 0 -9 0 10 -262130 -1
-1 0 1;
#X obj 407 124 r Channel-D;
#X obj 333 123 r Channel-C;
#X obj 259 123 r Channel-B;
#X obj 186 97 s Channel-A;
#X obj 259 97 s Channel-B;
#X obj 333 97 s Channel-C;
#X obj 407 98 s Channel-D;
#X obj 732 187 r Channel-F;
#X obj 34 481 random 6;
#X obj 34 503 + 0;
#X obj 145 510 sel 0;
#X obj 145 488 random 1;
#X obj 186 145 * 200;
#X obj 186 167 + 40;
#X obj 186 189 s tempo;
#X obj 259 189 s stutter-range;
#X obj 259 145 * 6;
#X obj 259 167 int;
#X obj 333 167 int;
#X obj 333 209 s stutter-offset;
#X obj 333 145 * 6;
#X obj 407 189 s re-record-freq;
#X obj 407 145 * 4;
#X obj 190 447 r re-record-freq;
#X obj 481 167 int;
#X obj 481 209 s timing-variation;
#X obj 132 383 r timing-variation;
#X obj 481 145 * 8;
#X obj 87 448 * 4;
#X obj 87 427 + 1;
#X obj 190 469 + 1;
#X obj 407 167 int;
#X obj 393 710 s re-trigger;
#X obj 393 689 t b;
#X obj 517 413 change;
#X obj 517 435 s settings-change;
#N canvas 116 136 465 525 lop 0;
#X obj 50 80 inlet~;
#X obj 160 80 inlet~;
#X obj 50 463 outlet~;
#X obj 160 465 outlet~;
#X obj 119 268 f;
#X obj 229 268 f;
#X obj 229 237 f;
#X obj 319 21 r settings-change;
#X obj 229 45 r re-trigger;
#X obj 229 87 f;
#X obj 64 437 *~ 2;
#X obj 174 437 *~ 2;
#X obj 174 415 bp~ 100 3;
#X obj 64 415 bp~ 100 3;
#X obj 50 303 lop~ 20000;
#X obj 50 323 lop~ 20000;
#X obj 50 343 lop~ 20000;
#X obj 50 363 lop~ 20000;
#X obj 50 386 lop~ 20000;
#X obj 160 387 lop~ 20000;
#X obj 160 364 lop~ 20000;
#X obj 160 343 lop~ 20000;
#X obj 160 323 lop~ 20000;
#X obj 160 303 lop~ 20000;
#X msg 319 43 20000;
#X obj 256 87 - 500;
#X obj 283 67 r decay-lop;
#X obj 229 139 / 20000;
#X obj 229 183 * 20000;
#X obj 229 208 max 5;
#X obj 229 161 pow 2;
#X obj 229 109 max 1;
#X connect 0 0 14 0;
#X connect 1 0 23 0;
#X connect 4 0 13 1;
#X connect 4 0 14 1;
#X connect 4 0 15 1;
#X connect 4 0 16 1;
#X connect 4 0 17 1;
#X connect 4 0 18 1;
#X connect 5 0 12 1;
#X connect 5 0 19 1;
#X connect 5 0 20 1;
#X connect 5 0 21 1;
#X connect 5 0 22 1;
#X connect 5 0 23 1;
#X connect 6 0 5 0;
#X connect 6 0 4 0;
#X connect 7 0 24 0;
#X connect 8 0 9 0;
#X connect 9 0 25 0;
#X connect 9 0 31 0;
#X connect 10 0 2 0;
#X connect 11 0 3 0;
#X connect 12 0 11 0;
#X connect 13 0 10 0;
#X connect 14 0 15 0;
#X connect 15 0 16 0;
#X connect 16 0 17 0;
#X connect 17 0 18 0;
#X connect 18 0 2 0;
#X connect 18 0 13 0;
#X connect 19 0 3 0;
#X connect 19 0 12 0;
#X connect 20 0 19 0;
#X connect 21 0 20 0;
#X connect 22 0 21 0;
#X connect 23 0 22 0;
#X connect 24 0 9 0;
#X connect 25 0 9 1;
#X connect 26 0 25 1;
#X connect 27 0 30 0;
#X connect 28 0 29 0;
#X connect 29 0 6 0;
#X connect 30 0 28 0;
#X connect 31 0 27 0;
#X restore 305 872 pd lop;
#X obj 732 209 * 2;
#X obj 732 231 moses 1;
#X obj 732 273 swap 1;
#X obj 732 295 -;
#X obj 808 302 - 1;
#X obj 732 253 t f b;
#X obj 732 369 s decay-lop;
#X obj 808 347 s decay-hip;
#X obj 811 253 t f b;
#X msg 838 299 0;
#X msg 788 278 0;
#X obj 808 324 * 100;
#X obj 732 347 * 2000;
#X msg 305 745 buffer-1 0.7 1 \$1;
#X msg 419 745 buffer-2 0.7 1 \$1;
#X connect 0 0 32 0;
#X connect 1 0 0 0;
#X connect 2 0 47 0;
#X connect 2 0 100 0;
#X connect 3 0 44 0;
#X connect 3 1 1 0;
#X connect 4 0 31 0;
#X connect 5 0 4 0;
#X connect 6 0 44 1;
#X connect 6 1 1 1;
#X connect 7 0 6 0;
#X connect 8 0 6 0;
#X connect 9 0 6 0;
#X connect 10 0 6 0;
#X connect 11 0 40 0;
#X connect 11 0 42 0;
#X connect 12 0 102 0;
#X connect 12 1 102 1;
#X connect 13 0 20 0;
#X connect 14 0 25 0;
#X connect 15 0 16 0;
#X connect 16 0 13 1;
#X connect 17 0 18 0;
#X connect 17 0 28 0;
#X connect 18 0 13 0;
#X connect 19 0 13 0;
#X connect 20 0 50 0;
#X connect 20 0 99 0;
#X connect 21 0 20 1;
#X connect 22 0 23 0;
#X connect 22 1 24 0;
#X connect 23 0 21 0;
#X connect 24 0 21 0;
#X connect 25 0 15 0;
#X connect 25 0 17 0;
#X connect 26 0 7 0;
#X connect 27 0 31 1;
#X connect 28 0 31 1;
#X connect 29 0 13 0;
#X connect 29 1 19 0;
#X connect 29 2 30 0;
#X connect 29 3 33 0;
#X connect 29 4 27 0;
#X connect 30 0 14 0;
#X connect 31 0 43 0;
#X connect 32 0 4 1;
#X connect 33 0 22 0;
#X connect 34 0 36 0;
#X connect 34 1 36 0;
#X connect 37 0 29 0;
#X connect 39 0 3 0;
#X connect 40 0 12 0;
#X connect 42 0 12 1;
#X connect 43 0 20 0;
#X connect 44 0 5 0;
#X connect 45 0 6 0;
#X connect 46 0 6 0;
#X connect 47 0 45 0;
#X connect 47 1 8 0;
#X connect 47 2 26 0;
#X connect 47 3 9 0;
#X connect 47 4 10 0;
#X connect 47 5 46 0;
#X connect 49 0 50 1;
#X connect 50 0 51 0;
#X connect 51 0 52 0;
#X connect 52 0 116 0;
#X connect 52 1 117 0;
#X connect 53 0 54 0;
#X connect 54 0 55 0;
#X connect 55 0 59 0;
#X connect 55 0 74 0;
#X connect 55 0 77 0;
#X connect 57 0 2 0;
#X connect 59 0 95 0;
#X connect 60 0 2 0;
#X connect 61 0 69 0;
#X connect 62 0 70 0;
#X connect 63 0 78 0;
#X connect 64 0 71 0;
#X connect 65 0 72 0;
#X connect 66 0 88 0;
#X connect 67 0 86 0;
#X connect 68 0 82 0;
#X connect 73 0 103 0;
#X connect 74 0 75 0;
#X connect 75 0 56 0;
#X connect 76 0 58 0;
#X connect 77 0 76 0;
#X connect 78 0 79 0;
#X connect 79 0 80 0;
#X connect 82 0 83 0;
#X connect 83 0 81 0;
#X connect 84 0 85 0;
#X connect 86 0 84 0;
#X connect 88 0 97 0;
#X connect 89 0 96 0;
#X connect 90 0 91 0;
#X connect 92 0 59 1;
#X connect 93 0 90 0;
#X connect 94 0 54 1;
#X connect 95 0 94 0;
#X connect 96 0 77 1;
#X connect 97 0 87 0;
#X connect 99 0 98 0;
#X connect 100 0 101 0;
#X connect 102 0 41 0;
#X connect 102 1 41 1;
#X connect 103 0 104 0;
#X connect 104 0 108 0;
#X connect 104 1 111 0;
#X connect 105 0 106 0;
#X connect 105 1 106 1;
#X connect 106 0 115 0;
#X connect 107 0 114 0;
#X connect 108 0 105 0;
#X connect 108 1 113 0;
#X connect 111 0 107 0;
#X connect 111 1 112 0;
#X connect 112 0 109 0;
#X connect 113 0 110 0;
#X connect 114 0 110 0;
#X connect 115 0 109 0;
#X connect 116 0 11 0;
#X connect 117 0 11 0;
