#N canvas 395 49 1217 872 10;
#X obj 582 290 sel 0;
#X obj 565 727 line~;
#X obj 582 267 mod 16;
#X obj 558 71 int;
#X obj 433 219 t f f;
#X obj 433 383 f;
#X obj 433 263 sel 0;
#X obj 558 199 unpack f f;
#X msg 630 172 8 16;
#X msg 598 172 8 8;
#X msg 670 172 4 8;
#X msg 700 172 2 8;
#X obj 433 662 t a b;
#N canvas 129 99 467 352 hip 0;
#X obj 50 80 inlet~;
#X obj 160 80 inlet~;
#X obj 50 290 outlet~;
#X obj 160 290 outlet~;
#X obj 119 148 f;
#X obj 229 148 f;
#X obj 50 183 hip~ 5;
#X obj 50 203 hip~ 5;
#X obj 50 223 hip~ 5;
#X obj 50 243 hip~ 5;
#X obj 50 266 hip~ 5;
#X obj 160 183 hip~ 5;
#X obj 160 203 hip~ 5;
#X obj 160 223 hip~ 5;
#X obj 160 244 hip~ 5;
#X obj 160 267 hip~ 5;
#X connect 0 0 6 0;
#X connect 1 0 11 0;
#X connect 4 0 6 1;
#X connect 4 0 7 1;
#X connect 4 0 8 1;
#X connect 4 0 9 1;
#X connect 4 0 10 1;
#X connect 5 0 11 1;
#X connect 5 0 12 1;
#X connect 5 0 13 1;
#X connect 5 0 14 1;
#X connect 5 0 15 1;
#X connect 6 0 7 0;
#X connect 7 0 8 0;
#X connect 8 0 9 0;
#X connect 9 0 10 0;
#X connect 10 0 2 0;
#X connect 11 0 12 0;
#X connect 12 0 13 0;
#X connect 13 0 14 0;
#X connect 14 0 15 0;
#X connect 15 0 3 0;
#X restore 433 760 pd hip;
#X obj 592 334 s gk-stutter-sect-bang;
#X obj 389 301 s gk-stutter-retrigger-bang;
#X obj 768 406 metro 764.331;
#X obj 843 303 line;
#X obj 843 351 * 714.331;
#X obj 843 373 + 50;
#X obj 802 351 sel 1;
#X msg 802 376 0;
#X msg 783 270 1;
#X obj 433 518 f;
#X obj 959 378 * 764.331;
#X obj 959 327 sel 0 1 2;
#X msg 959 353 0;
#X msg 992 354 7;
#X obj 843 328 pow 4;
#X obj 606 141 t b b;
#X msg 478 448 0;
#X msg 508 448 1;
#X obj 768 241 t b b b b b;
#X msg 843 283 0 \, 1 1528.66;
#X obj 433 474 spigot 1;
#X obj 582 311 random 8;
#X obj 959 303 random 2;
#X floatatom 488 253 5 0 0 0 - - -, f 5;
#X msg 565 702 0 10 \, 1 10 10;
#X obj 33 85 adc~;
#N canvas 0 22 450 278 (subpatch) 0;
#X array buffer-1 44100 float 0;
#X coords 0 1 44099 -1 100 70 1 0 0;
#X restore 138 70 graph;
#N canvas 219 318 659 656 record 1;
#X obj 44 154 t f f b;
#X obj 73 179 f;
#X obj 44 199 -;
#X obj 44 221 abs;
#X obj 44 265 sel 1;
#X obj 44 84 hip~ 1000;
#X obj 44 31 inlet~;
#X obj 44 243 > 10;
#X obj 44 110 *~ 1;
#X msg 44 493 start;
#X obj 44 307 f;
#X obj 70 307 + 1;
#X obj 44 329 mod 2;
#X obj 44 371 sel 0 1;
#X obj 44 413 t b b;
#X obj 56 56 delwrite~ in-del-L 5;
#X obj 57 523 delread~ in-del-L 5;
#X obj 309 245 metro 1000;
#X obj 309 169 loadbang;
#X msg 309 191 1;
#X msg 471 180 0;
#X obj 385 139 t f b;
#X msg 412 163 1;
#X obj 471 219 change;
#X obj 385 190 * 5000;
#X obj 385 115 moses 0.9;
#X obj 385 212 + 500;
#X obj 385 93 r rewrite-freq;
#X obj 44 132 env~ 128;
#X obj 44 549 tabwrite~ buffer-1;
#X msg 194 493 start;
#X obj 194 413 t b b;
#X obj 194 549 tabwrite~ buffer-2;
#X obj 266 382 s writing-into;
#X connect 0 0 2 0;
#X connect 0 1 1 1;
#X connect 0 2 1 0;
#X connect 1 0 2 1;
#X connect 2 0 3 0;
#X connect 3 0 7 0;
#X connect 4 0 10 0;
#X connect 5 0 8 0;
#X connect 6 0 5 0;
#X connect 6 0 15 0;
#X connect 7 0 4 0;
#X connect 8 0 28 0;
#X connect 9 0 29 0;
#X connect 10 0 11 0;
#X connect 10 0 12 0;
#X connect 11 0 10 1;
#X connect 12 0 13 0;
#X connect 12 0 33 0;
#X connect 13 0 14 0;
#X connect 13 1 31 0;
#X connect 14 0 9 0;
#X connect 16 0 29 0;
#X connect 16 0 32 0;
#X connect 17 0 10 0;
#X connect 18 0 19 0;
#X connect 19 0 17 0;
#X connect 20 0 23 0;
#X connect 21 0 24 0;
#X connect 21 1 22 0;
#X connect 22 0 23 0;
#X connect 23 0 17 0;
#X connect 24 0 26 0;
#X connect 25 0 21 0;
#X connect 25 1 20 0;
#X connect 26 0 17 1;
#X connect 27 0 25 0;
#X connect 28 0 0 0;
#X connect 30 0 32 0;
#X connect 31 0 30 0;
#X restore 33 115 pd record;
#N canvas 0 22 450 300 debounce 0;
#X msg 155 74 0;
#X msg 177 112 1;
#X obj 85 66 spigot 1;
#X obj 85 92 t a b b;
#X obj 85 44 inlet;
#X obj 85 153 outlet;
#X obj 147 44 inlet;
#X obj 108 129 del 12000;
#X connect 0 0 2 1;
#X connect 1 0 2 1;
#X connect 2 0 3 0;
#X connect 3 0 5 0;
#X connect 3 1 7 0;
#X connect 3 2 0 0;
#X connect 4 0 2 0;
#X connect 6 0 7 1;
#X connect 7 0 1 0;
#X restore 768 218 pd debounce;
#N canvas 0 22 450 300 timebase 0;
#X obj 79 47 loadbang;
#X msg 79 69 1;
#X obj 79 91 metro 62.5;
#X obj 79 113 f;
#X obj 105 113 + 1;
#X obj 79 135 s tick;
#X connect 0 0 1 0;
#X connect 1 0 2 0;
#X connect 2 0 3 0;
#X connect 3 0 4 0;
#X connect 3 0 5 0;
#X connect 4 0 3 1;
#X restore 32 58 pd timebase;
#X obj 432 178 r tick;
#X obj 433 710 s_playtable;
#X obj 433 828 dac~;
#X obj 467 727 s_playtable;
#X floatatom 558 48 5 0 0 0 - - -, f 5;
#X obj 643 40 change;
#X obj 643 63 s gk-stutter-setting-change;
#X obj 493 26 hsl 128 15 0 4 0 0 empty empty empty -2 -8 0 10 -262144
-1 -1 7800 1;
#X obj 433 496 * 500;
#X obj 433 241 mod 2;
#N canvas 0 22 764 526 freqshift 0;
#X obj 98 71 inlet~;
#X obj 208 71 inlet~;
#X obj 98 461 outlet~;
#X obj 208 461 outlet~;
#X obj 208 423 e_freqshift;
#X obj 244 388 t a a;
#X msg 244 360 freq \$1;
#X obj 244 253 f;
#X obj 291 286 r gk-stutter-sect-bang;
#X msg 291 310 0;
#X obj 244 104 r gk-stutter-retrigger-bang;
#X obj 269 253 + 10;
#X obj 426 65 r gk-stutter-setting-change;
#X msg 426 124 0;
#X obj 316 152 r rotRate;
#X msg 316 225 -20;
#X msg 425 224 20;
#X obj 316 179 moses -0.1;
#X obj 374 199 moses 0.1;
#X msg 374 224 0;
#X obj 244 334 min 3000;
#X obj 461 291 s drum-line-freq-disp;
#X obj 98 423 e_freqshift;
#X connect 0 0 22 0;
#X connect 1 0 4 0;
#X connect 4 0 3 0;
#X connect 5 0 22 1;
#X connect 5 1 4 1;
#X connect 6 0 5 0;
#X connect 7 0 11 0;
#X connect 7 0 20 0;
#X connect 7 0 21 0;
#X connect 8 0 9 0;
#X connect 9 0 20 0;
#X connect 10 0 7 0;
#X connect 11 0 7 1;
#X connect 12 0 13 0;
#X connect 13 0 7 1;
#X connect 14 0 17 0;
#X connect 15 0 11 1;
#X connect 16 0 11 1;
#X connect 17 0 15 0;
#X connect 17 1 18 0;
#X connect 18 0 19 0;
#X connect 18 1 16 0;
#X connect 19 0 11 1;
#X connect 19 0 20 0;
#X connect 20 0 6 0;
#X connect 22 0 2 0;
#X restore 433 796 pd freqshift;
#X floatatom 627 238 5 0 0 0 - - -, f 5;
#X msg 558 172 16 16;
#X msg 730 172 1 8;
#X obj 558 96 sel 0 1 2 3 4 5;
#X msg 433 633 buffer-1 0.7 1 \$1;
#X msg 548 632 buffer-2 0.7 1 \$1;
#N canvas 0 22 450 278 (subpatch) 0;
#X array buffer-2 44100 float 0;
#X coords 0 1 44099 -1 100 70 1 0 0;
#X restore 138 156 graph;
#X obj 478 516 r writing-into;
#X obj 433 540 pack f f;
#X msg 433 562 \$2 \$1;
#X obj 433 584 route 1 0;
#X obj 831 138 s rotRate;
#X obj 872 37 r rotRate;
#X obj 872 59 abs;
#X obj 872 81 * 5;
#X obj 834 115 hsl 128 15 -1 1 0 0 empty empty empty -2 -8 0 10 -262144
-1 -1 6000 1;
#X connect 0 0 35 0;
#X connect 2 0 0 0;
#X connect 3 0 49 0;
#X connect 3 0 58 0;
#X connect 4 0 53 0;
#X connect 4 1 2 0;
#X connect 5 0 34 0;
#X connect 6 0 15 0;
#X connect 6 0 5 0;
#X connect 7 0 37 0;
#X connect 7 0 53 1;
#X connect 7 1 2 1;
#X connect 7 1 55 0;
#X connect 8 0 7 0;
#X connect 9 0 7 0;
#X connect 10 0 7 0;
#X connect 11 0 7 0;
#X connect 12 0 45 0;
#X connect 12 0 47 0;
#X connect 13 0 54 0;
#X connect 13 1 54 1;
#X connect 16 0 23 0;
#X connect 17 0 28 0;
#X connect 18 0 19 0;
#X connect 19 0 16 1;
#X connect 20 0 21 0;
#X connect 20 0 31 0;
#X connect 21 0 16 0;
#X connect 22 0 16 0;
#X connect 23 0 63 0;
#X connect 24 0 23 1;
#X connect 25 0 26 0;
#X connect 25 1 27 0;
#X connect 26 0 24 0;
#X connect 27 0 24 0;
#X connect 28 0 18 0;
#X connect 28 0 20 0;
#X connect 29 0 8 0;
#X connect 29 1 42 0;
#X connect 30 0 34 1;
#X connect 31 0 34 1;
#X connect 32 0 16 0;
#X connect 32 1 22 0;
#X connect 32 2 33 0;
#X connect 32 3 36 0;
#X connect 32 4 30 0;
#X connect 33 0 17 0;
#X connect 34 0 52 0;
#X connect 35 0 5 1;
#X connect 35 0 14 0;
#X connect 36 0 25 0;
#X connect 38 0 1 0;
#X connect 39 0 41 0;
#X connect 42 0 32 0;
#X connect 44 0 4 0;
#X connect 45 0 13 0;
#X connect 47 0 13 1;
#X connect 48 0 3 0;
#X connect 49 0 50 0;
#X connect 51 0 3 0;
#X connect 52 0 23 0;
#X connect 53 0 6 0;
#X connect 54 0 46 0;
#X connect 54 1 46 1;
#X connect 56 0 7 0;
#X connect 57 0 7 0;
#X connect 58 0 56 0;
#X connect 58 1 9 0;
#X connect 58 2 29 0;
#X connect 58 3 10 0;
#X connect 58 4 11 0;
#X connect 58 5 57 0;
#X connect 59 0 12 0;
#X connect 60 0 12 0;
#X connect 62 0 63 1;
#X connect 63 0 64 0;
#X connect 64 0 65 0;
#X connect 65 0 59 0;
#X connect 65 1 60 0;
#X connect 67 0 68 0;
#X connect 68 0 69 0;
#X connect 69 0 3 0;
#X connect 70 0 66 0;
