#N canvas 248 78 939 884 10;
#X obj 179 708 dac~;
#X obj 261 553 adc~;
#N canvas 0 22 334 625 timebase 0;
#X obj 89 525 s pre-tick;
#X obj 89 501 f;
#X obj 115 501 + 1;
#X obj 75 116 snapshot~;
#X obj 43 42 loadbang;
#X obj 75 84 metro 1;
#X obj 75 160 change;
#X obj 75 182 sel 1;
#X obj 43 498 s tick;
#X obj 43 446 metro 100;
#X obj 75 204 f;
#X obj 101 204 + 1;
#X obj 75 226 mod 2;
#X obj 75 248 sel 0 1;
#X obj 109 304 f;
#X obj 136 304 + 1;
#X msg 75 273 0;
#X obj 94 398 f;
#X obj 94 420 / 8;
#X obj 75 138 < 0;
#X obj 119 371 t b f;
#X obj 119 327 r rate;
#X obj 119 349 change;
#X obj 43 468 t b b;
#X obj 165 67 inlet~;
#X connect 1 0 2 0;
#X connect 1 0 0 0;
#X connect 2 0 1 1;
#X connect 3 0 19 0;
#X connect 4 0 5 0;
#X connect 4 0 9 0;
#X connect 5 0 3 0;
#X connect 5 0 14 0;
#X connect 6 0 7 0;
#X connect 7 0 10 0;
#X connect 9 0 23 0;
#X connect 10 0 11 0;
#X connect 10 0 12 0;
#X connect 11 0 10 1;
#X connect 12 0 13 0;
#X connect 13 0 16 0;
#X connect 13 1 17 0;
#X connect 14 0 15 0;
#X connect 14 0 17 1;
#X connect 15 0 14 1;
#X connect 16 0 14 1;
#X connect 17 0 18 0;
#X connect 18 0 9 1;
#X connect 19 0 6 0;
#X connect 20 0 17 0;
#X connect 20 1 18 1;
#X connect 21 0 22 0;
#X connect 22 0 20 0;
#X connect 23 0 8 0;
#X connect 23 1 1 0;
#X connect 24 0 3 0;
#X restore 261 620 pd timebase;
#X obj 196 -2 r Channel-A;
#X obj 417 -1 r Channel-D;
#X obj 343 -2 r Channel-C;
#X obj 269 -2 r Channel-B;
#N canvas 0 22 699 528 rates 0;
#X obj 138 53 * 14;
#X obj 138 95 sel 0 1 2 3 4 5 6 7 8 9 10 11 12 13;
#X msg 138 117 0.25;
#X msg 148 137 0.5;
#X msg 158 157 0.75;
#X msg 168 177 1;
#X msg 178 197 1.5;
#X msg 188 217 2;
#X msg 198 237 3;
#X msg 208 257 4;
#X text 174 117 1/1;
#X text 184 137 1/2;
#X text 194 157 1/3;
#X text 204 177 1/4;
#X text 214 197 1/6;
#X text 224 217 1/8;
#X text 234 237 1/12;
#X text 244 257 1/16;
#X msg 218 277 6;
#X msg 228 298 8;
#X text 254 277 1/24;
#X text 264 298 1/32;
#X msg 238 318 12;
#X msg 248 338 16;
#X text 274 318 1/48;
#X text 284 338 1/64;
#X text 294 358 1/96;
#X text 304 378 1/128;
#X msg 258 358 24;
#X msg 268 378 32;
#X obj 138 29 inlet;
#X obj 138 413 outlet;
#X floatatom 251 47 5 0 0 0 - - -, f 5;
#X obj 138 75 int;
#X connect 0 0 32 0;
#X connect 0 0 33 0;
#X connect 1 0 2 0;
#X connect 1 1 3 0;
#X connect 1 2 4 0;
#X connect 1 3 5 0;
#X connect 1 4 6 0;
#X connect 1 5 7 0;
#X connect 1 6 8 0;
#X connect 1 7 9 0;
#X connect 1 8 18 0;
#X connect 1 9 19 0;
#X connect 1 10 22 0;
#X connect 1 11 23 0;
#X connect 1 12 28 0;
#X connect 1 13 29 0;
#X connect 2 0 31 0;
#X connect 3 0 31 0;
#X connect 4 0 31 0;
#X connect 5 0 31 0;
#X connect 6 0 31 0;
#X connect 7 0 31 0;
#X connect 8 0 31 0;
#X connect 9 0 31 0;
#X connect 18 0 31 0;
#X connect 19 0 31 0;
#X connect 22 0 31 0;
#X connect 23 0 31 0;
#X connect 28 0 31 0;
#X connect 29 0 31 0;
#X connect 30 0 0 0;
#X connect 33 0 1 0;
#X restore 269 20 pd rates;
#X obj 269 42 s rate;
#N canvas 0 22 467 555 modes 0;
#X obj 138 30 inlet;
#X obj 138 74 int;
#X msg 348 137 down;
#X msg 358 157 updown;
#X msg 338 117 up;
#X msg 367 177 converge;
#X msg 138 117 0;
#X msg 148 137 1;
#X msg 158 157 2;
#X msg 167 177 3;
#X obj 138 52 * 4;
#X msg 178 197 4;
#X msg 338 378 random;
#X msg 328 358 random-once;
#X msg 318 338 random-other;
#X obj 138 95 sel 0 1 2 3 4;
#X obj 138 413 outlet;
#X connect 0 0 10 0;
#X connect 1 0 15 0;
#X connect 6 0 16 0;
#X connect 7 0 16 0;
#X connect 8 0 16 0;
#X connect 9 0 16 0;
#X connect 10 0 1 0;
#X connect 11 0 16 0;
#X connect 15 0 6 0;
#X connect 15 1 7 0;
#X connect 15 2 8 0;
#X connect 15 3 9 0;
#X connect 15 4 11 0;
#X restore 343 20 pd modes;
#X obj 343 42 s style;
#X obj 417 43 int;
#X obj 417 65 + 1;
#X obj 417 87 s steps;
#X obj 417 21 * 16;
#X obj 179 93 r tick;
#X obj 179 284 f;
#X obj 206 284 + 1;
#X obj 221 212 r style;
#X msg 221 256 1;
#X msg 252 256 -1;
#X obj 179 351 * 1;
#X obj 194 329 r spread;
#X obj 200 372 r base-note;
#X msg 179 160 \$2 \$1;
#X obj 224 93 r style;
#X obj 179 224 t b;
#X obj 287 89 loadbang;
#X obj 179 652 osc~ 1000;
#X msg 179 115 0;
#X obj 179 138 pack f f;
#X msg 287 111 0;
#X obj 221 234 sel 0 1;
#N canvas 0 22 403 417 updown 0;
#X obj 119 226 mod 4;
#X obj 146 144 r steps;
#X obj 146 196 * 1;
#X obj 146 176 f 4;
#X obj 119 56 inlet;
#X obj 119 312 outlet;
#X connect 0 0 5 0;
#X connect 1 0 3 0;
#X connect 2 0 0 1;
#X connect 3 0 2 0;
#X connect 4 0 0 0;
#X restore 179 308 pd updown;
#X obj 261 575 *~ -4.4;
#X obj 179 632 sig~;
#X obj 179 612 mtof;
#X obj 261 597 /~ 1;
#X obj 179 676 *~;
#X obj 282 648 +~ 0.043;
#X obj 297 323 sel 0 1 2 3 4 5 6;
#X msg 297 347 intervals 0 2 4 5 7 9 11;
#X msg 297 367 intervals 0 1 3 5 6 8 10;
#X msg 297 387 intervals 0 2 3 5 7 8 10;
#X msg 297 407 intervals 0 2 4 5 7 9 10;
#X msg 297 427 intervals 0 2 4 6 7 9 11;
#X msg 297 447 intervals 0 1 3 5 7 8 10;
#X msg 297 468 intervals 0 2 3 5 7 9 10;
#N canvas 0 22 223 437 notes 0;
#X obj 24 64 t f f;
#X obj 121 139 * 12;
#X obj 103 343 +;
#X obj 103 322 f;
#X obj 103 364 outlet;
#X obj 24 43 inlet;
#X obj 39 154 inlet, f 6;
#X obj 24 223 sel 0 1 2 3 4 5 6;
#X obj 24 245 f;
#X obj 40 265 f;
#X obj 56 245 f;
#X obj 72 265 f;
#X obj 89 245 f;
#X obj 105 265 f;
#X obj 121 245 f;
#X obj 39 176 route intervals;
#X obj 24 85 mod 7;
#X obj 121 118 div 7;
#X floatatom 24 107 5 0 0 0 - - -, f 5;
#X floatatom 161 89 5 0 0 0 - - -, f 5;
#X obj 39 199 unpack f f f f f f f;
#X connect 0 0 16 0;
#X connect 0 1 17 0;
#X connect 1 0 2 1;
#X connect 2 0 4 0;
#X connect 3 0 2 0;
#X connect 5 0 0 0;
#X connect 6 0 15 0;
#X connect 7 0 8 0;
#X connect 7 1 9 0;
#X connect 7 2 10 0;
#X connect 7 3 11 0;
#X connect 7 4 12 0;
#X connect 7 5 13 0;
#X connect 7 6 14 0;
#X connect 8 0 3 0;
#X connect 9 0 3 0;
#X connect 10 0 3 0;
#X connect 11 0 3 0;
#X connect 12 0 3 0;
#X connect 13 0 3 0;
#X connect 14 0 3 0;
#X connect 15 0 20 0;
#X connect 16 0 7 0;
#X connect 16 0 18 0;
#X connect 17 0 1 0;
#X connect 17 0 19 0;
#X connect 20 0 8 1;
#X connect 20 1 9 1;
#X connect 20 2 10 1;
#X connect 20 3 11 1;
#X connect 20 4 12 1;
#X connect 20 5 13 1;
#X connect 20 6 14 1;
#X restore 179 511 pd notes;
#X obj 196 64 s scale;
#X obj 196 20 * 7;
#X obj 196 42 int;
#X obj 297 300 r scale;
#X obj 179 182 route 0 1 2 3;
#X obj 179 394 + 35;
#X connect 1 0 34 0;
#X connect 1 1 39 0;
#X connect 3 0 50 0;
#X connect 4 0 14 0;
#X connect 5 0 9 0;
#X connect 6 0 7 0;
#X connect 7 0 8 0;
#X connect 9 0 10 0;
#X connect 11 0 12 0;
#X connect 12 0 13 0;
#X connect 14 0 11 0;
#X connect 15 0 29 0;
#X connect 16 0 17 0;
#X connect 16 0 33 0;
#X connect 17 0 16 1;
#X connect 18 0 32 0;
#X connect 19 0 17 1;
#X connect 20 0 17 1;
#X connect 21 0 54 0;
#X connect 22 0 21 1;
#X connect 23 0 54 1;
#X connect 24 0 53 0;
#X connect 25 0 30 1;
#X connect 26 0 16 0;
#X connect 27 0 31 0;
#X connect 28 0 38 0;
#X connect 29 0 30 0;
#X connect 30 0 24 0;
#X connect 31 0 30 1;
#X connect 32 0 19 0;
#X connect 32 1 20 0;
#X connect 33 0 21 0;
#X connect 34 0 37 0;
#X connect 35 0 28 0;
#X connect 36 0 35 0;
#X connect 37 0 2 0;
#X connect 38 0 0 0;
#X connect 38 0 0 1;
#X connect 39 0 38 1;
#X connect 40 0 41 0;
#X connect 40 1 47 0;
#X connect 40 2 46 0;
#X connect 40 3 45 0;
#X connect 40 4 44 0;
#X connect 40 5 43 0;
#X connect 40 6 42 0;
#X connect 41 0 48 1;
#X connect 42 0 48 1;
#X connect 43 0 48 1;
#X connect 44 0 48 1;
#X connect 45 0 48 1;
#X connect 46 0 48 1;
#X connect 47 0 48 1;
#X connect 48 0 36 0;
#X connect 50 0 51 0;
#X connect 51 0 49 0;
#X connect 52 0 40 0;
#X connect 53 0 26 0;
#X connect 53 1 26 0;
#X connect 53 2 26 0;
#X connect 54 0 48 0;
