#N canvas 401 152 457 384 10;
#X obj 84 183 dac~;
#X obj 84 102 *~ 0.8;
#X obj 138 -100 vsl 15 50 0 1 0 0 empty empty A 0 -9 0 10 -262130 -1
-1 0 1;
#X obj 215 -103 vsl 15 50 0 1 0 0 empty empty B 0 -9 0 10 -262130 -1
-1 0 1;
#X obj 124 -41 r Channel-A;
#X obj 305 -105 vsl 8 50 0 1 0 0 empty empty C 0 -9 0 10 -262130 -1
-1 0 1;
#X obj 381 -104 vsl 15 50 0 1 0 0 empty empty D 0 -9 0 10 -262130 -1
-1 0 1;
#X obj 363 -41 r Channel-D;
#X obj 284 -41 r Channel-C;
#X obj 197 -41 r Channel-B;
#X text 304 -133 HIP;
#X text 136 -128 FB;
#X text 214 -131 TIME;
#X text 377 -135 LOP;
#X obj 84 2 adc~;
#X obj 84 82 e_pitchshift;
#X msg 153 36 pitch \$1;
#X obj 153 -9 * 12;
#X obj 153 14 - 6;
#X connect 1 0 0 0;
#X connect 1 0 0 1;
#X connect 2 0 17 0;
#X connect 4 0 17 0;
#X connect 14 0 15 0;
#X connect 14 1 15 0;
#X connect 15 0 1 0;
#X connect 16 0 15 1;
#X connect 17 0 18 0;
#X connect 18 0 16 0;
