#N canvas 283 83 704 933 10;
#X obj 126 776 dac~;
#X obj 132 141 vsl 15 50 0 1 0 0 empty empty A 0 -9 0 10 -262130 -1
-1 4900 1;
#X obj 206 140 vsl 15 50 0 1 0 0 empty empty B 0 -9 0 10 -262130 -1
-1 0 1;
#X obj 279 139 vsl 15 50 0 1 0 0 empty empty C 0 -9 0 10 -262130 -1
-1 0 1;
#X obj 352 141 vsl 15 50 0 1 0 0 empty empty D 0 -9 0 10 -262130 -1
-1 4900 1;
#X obj 28 25 adc~;
#N canvas 0 22 450 278 (subpatch) 0;
#X array buffer-L 22050 float 0;
#X coords 0 1 22049 -1 100 70 1 0 0;
#X restore 200 -25 graph;
#N canvas 0 22 450 278 (subpatch) 0;
#X array buffer-R 22050 float 0;
#X coords 0 1 22049 -1 100 70 1 0 0;
#X restore 305 -25 graph;
#X obj 352 198 s Channel-D;
#X obj 132 198 s Channel-A;
#X obj 206 198 s Channel-B;
#X obj 279 198 s Channel-C;
#X obj 124 335 s grain-size;
#N canvas 295 221 659 656 record 0;
#X obj 44 154 t f f b;
#X obj 73 179 f;
#X obj 44 199 -;
#X obj 44 221 abs;
#X obj 44 265 sel 1;
#X obj 44 132 env~ 128;
#X obj 44 84 hip~ 1000;
#X obj 44 31 inlet~;
#X obj 44 243 > 10;
#X obj 44 549 tabwrite~ buffer-L;
#X obj 194 550 tabwrite~ buffer-R;
#X obj 194 84 hip~ 1000;
#X obj 194 31 inlet~;
#X obj 44 110 *~ 1;
#X msg 44 493 start;
#X msg 194 493 start;
#X obj 44 307 f;
#X obj 70 307 + 1;
#X obj 44 329 mod 2;
#X obj 44 371 sel 0 1;
#X obj 44 413 t b b;
#X obj 194 413 t b b;
#X obj 56 56 delwrite~ in-del-L 5;
#X obj 206 56 delwrite~ in-del-R 5;
#X obj 57 523 delread~ in-del-L 5;
#X obj 202 523 delread~ in-del-R 5;
#X obj 309 245 metro 1000;
#X obj 309 169 loadbang;
#X msg 309 191 1;
#X msg 471 180 0;
#X obj 385 139 t f b;
#X msg 412 163 1;
#X obj 471 219 change;
#X obj 385 190 * 5000;
#X obj 385 115 moses 0.9;
#X obj 385 212 + 500;
#X obj 385 93 r rewrite-freq;
#X connect 0 0 2 0;
#X connect 0 1 1 1;
#X connect 0 2 1 0;
#X connect 1 0 2 1;
#X connect 2 0 3 0;
#X connect 3 0 8 0;
#X connect 4 0 16 0;
#X connect 5 0 0 0;
#X connect 6 0 13 0;
#X connect 7 0 6 0;
#X connect 7 0 22 0;
#X connect 8 0 4 0;
#X connect 11 0 13 0;
#X connect 12 0 11 0;
#X connect 12 0 23 0;
#X connect 13 0 5 0;
#X connect 14 0 9 0;
#X connect 15 0 10 0;
#X connect 16 0 17 0;
#X connect 16 0 18 0;
#X connect 17 0 16 1;
#X connect 18 0 19 0;
#X connect 19 0 20 0;
#X connect 19 1 21 0;
#X connect 20 0 14 0;
#X connect 21 0 15 0;
#X connect 24 0 9 0;
#X connect 25 0 10 0;
#X connect 26 0 16 0;
#X connect 27 0 28 0;
#X connect 28 0 26 0;
#X connect 29 0 32 0;
#X connect 30 0 33 0;
#X connect 30 1 31 0;
#X connect 31 0 32 0;
#X connect 32 0 26 0;
#X connect 33 0 35 0;
#X connect 34 0 30 0;
#X connect 34 1 29 0;
#X connect 35 0 26 1;
#X connect 36 0 34 0;
#X restore 28 55 pd record;
#N canvas 0 22 450 278 (subpatch) 0;
#X array hanning 64 float 1;
#A 0 0 0.00240764 0.00960734 0.0215298 0.0380601 0.0590392 0.0842649
0.113494 0.146446 0.182803 0.222214 0.264301 0.308658 0.354857 0.402455
0.450991 0.5 0.549009 0.597545 0.645143 0.691342 0.735699 0.777786
0.817197 0.853554 0.886506 0.915736 0.940961 0.96194 0.978471 0.990393
0.997593 1 0.997592 0.990392 0.978469 0.961939 0.940959 0.915733 0.886503
0.853551 0.817194 0.777782 0.735695 0.691338 0.645139 0.597541 0.549004
0.499996 0.450987 0.40245 0.354853 0.308654 0.264297 0.222211 0.182799
0.146443 0.113491 0.084262 0.0590366 0.038058 0.0215281 0.00960615
0.00240701;
#X coords 0 1 63 0 100 70 1 0 0;
#X restore 410 -25 graph;
#X obj 336 359 +~ 1;
#X obj 336 337 osc~ 0.1;
#X obj 124 289 pow 2.5;
#X msg 428 593 1 \$1;
#X obj 428 615 /;
#X obj 428 637 * 1000;
#X obj 349 677 *~ 0.666;
#X obj 428 659 sig~;
#X obj 276 702 lop~ 12000;
#X obj 276 724 lop~ 12000;
#X obj 218 364 s hanning-pow;
#X floatatom 268 337 5 0 0 0 - - -, f 5;
#X obj 132 102 / 127;
#X obj 192 100 / 127;
#X obj 312 100 / 127;
#X obj 252 100 / 127;
#X floatatom 260 313 5 0 0 0 - - -, f 5;
#X obj 218 289 pow 3;
#X obj 218 311 * 10;
#X obj 218 333 + 0.1;
#X obj 124 311 + 0.078;
#X obj 336 290 pow 2;
#X obj 126 744 *~ 1;
#X obj 196 744 *~ 1;
#X obj 336 383 s~ start-time;
#X obj 126 527 grain 0 50;
#X obj 276 680 *~ 0.2;
#X obj 428 571 r freq-0;
#X obj 349 724 vd~ out-del 539;
#X obj 349 702 delwrite~ out-del 539;
#X obj 126 628 *~ 1;
#X obj 196 628 *~ 1;
#X obj 208 527 grain 1 40;
#X obj 286 526 grain 2 30;
#X obj 366 526 grain 3 20;
#X obj 434 377 s start-offset;
#X obj 443 289 s rewrite-freq;
#X obj 443 264 r Channel-D;
#X obj 336 268 r Channel-C;
#X obj 132 80 f 74;
#X obj 192 80 f 71;
#X obj 252 80 f 65;
#X obj 312 80 f 2;
#X obj 336 312 * 3;
#X obj 218 267 r Channel-B;
#X obj 124 267 r Channel-A;
#X connect 1 0 9 0;
#X connect 2 0 10 0;
#X connect 3 0 11 0;
#X connect 4 0 8 0;
#X connect 5 0 13 0;
#X connect 5 1 13 1;
#X connect 15 0 39 0;
#X connect 16 0 15 0;
#X connect 17 0 35 0;
#X connect 18 0 19 0;
#X connect 19 0 20 0;
#X connect 20 0 22 0;
#X connect 21 0 44 0;
#X connect 22 0 43 0;
#X connect 23 0 24 0;
#X connect 24 0 37 0;
#X connect 24 0 38 0;
#X connect 24 0 44 0;
#X connect 26 0 25 0;
#X connect 27 0 1 0;
#X connect 28 0 2 0;
#X connect 29 0 4 0;
#X connect 30 0 3 0;
#X connect 32 0 33 0;
#X connect 33 0 34 0;
#X connect 34 0 25 0;
#X connect 34 0 31 0;
#X connect 35 0 12 0;
#X connect 36 0 58 0;
#X connect 37 0 0 0;
#X connect 38 0 0 1;
#X connect 40 0 45 0;
#X connect 40 1 46 0;
#X connect 41 0 23 0;
#X connect 42 0 18 0;
#X connect 43 0 41 0;
#X connect 45 0 37 0;
#X connect 45 0 21 0;
#X connect 46 0 38 0;
#X connect 46 0 21 0;
#X connect 47 0 45 0;
#X connect 47 1 46 0;
#X connect 48 0 45 0;
#X connect 48 1 46 0;
#X connect 49 0 45 0;
#X connect 49 1 46 0;
#X connect 52 0 51 0;
#X connect 53 0 36 0;
#X connect 53 0 50 0;
#X connect 54 0 27 0;
#X connect 55 0 28 0;
#X connect 56 0 30 0;
#X connect 57 0 29 0;
#X connect 58 0 16 0;
#X connect 59 0 32 0;
#X connect 60 0 17 0;
