#N canvas 402 49 907 854 10;
#X obj 35 659 dac~;
#X obj 411 -4 vsl 15 50 0 1 0 0 empty empty A 0 -9 0 10 -262130 -1
-1 0 1;
#X obj 520 46 vsl 15 50 0 1 0 0 empty empty B 0 -9 0 10 -262130 -1
-1 0 1;
#X obj 397 85 r Channel-A;
#X obj 243 -53 vsl 15 50 0 1 0 0 empty empty C 0 -9 0 10 -262130 -1
-1 0 1;
#X obj 101 388 vsl 15 50 0 1 0 0 empty empty D 0 -9 0 10 -262130 -1
-1 0 1;
#X obj 90 481 r Channel-D;
#X obj 219 38 r Channel-C;
#X obj 468 147 r Channel-B;
#X obj 35 -49 adc~;
#N canvas 0 22 450 278 (subpatch) 0;
#X array buffer-L 44100 float 0;
#X coords 0 1 44099 -1 200 140 1;
#X restore 452 -98 graph;
#N canvas 0 22 450 278 (subpatch) 0;
#X array buffer-R 44100 float 0;
#X coords 0 1 44099 -1 200 140 1 0 0;
#X restore 662 -98 graph;
#X obj 137 323 tabwrite~ buffer-L;
#X obj 147 343 tabwrite~ buffer-R;
#X obj 143 283 t a;
#X obj 351 423 tabread~ buffer-L;
#X msg 396 202 44100 \$1;
#X obj 396 224 /;
#X msg 351 127 \$1;
#X floatatom 351 93 5 0 0 0 - - -, f 5;
#X obj 351 398 +~;
#X obj 351 274 phasor~ 1;
#X obj 468 318 *~ 22050;
#X obj 461 398 +~;
#X obj 461 423 tabread~ buffer-R;
#X obj 558 318 *~ 22050;
#X obj 468 283 phasor~ 0.1;
#X obj 558 284 phasor~ 0.1;
#X obj 351 445 *~;
#X obj 461 445 *~;
#X obj 581 423 tabread~ buffer-L;
#X obj 581 398 +~;
#X obj 691 398 +~;
#X obj 691 423 tabread~ buffer-R;
#X obj 581 445 *~;
#X obj 691 445 *~;
#X msg 621 262 0.25;
#X obj 668 318 *~ 22050;
#X obj 758 318 *~ 22050;
#X obj 668 283 phasor~ 0.1;
#X obj 758 284 phasor~ 0.1;
#X msg 729 259 0.5;
#X msg 821 262 0.75;
#X msg 531 260 0;
#X obj 531 234 t b b b b;
#X obj 351 316 *~;
#X obj 35 630 *~;
#X obj 65 630 *~;
#X obj 78 601 line~;
#X obj 135 630 *~;
#X obj 148 601 line~;
#X obj 90 503 swap 1;
#X obj 90 525 -;
#X obj 78 578 pack f 50;
#X obj 148 579 pack f 50;
#X obj 101 446 s Channel-D;
#X obj 350 497 *~ 1;
#X obj 411 53 s Channel-A;
#X obj 397 151 + 0.7;
#X obj 397 129 * 30;
#X obj 397 107 pow 3;
#X obj 468 191 - 1;
#X obj 521 107 s Channel-B;
#X obj 468 169 * 3;
#X obj 143 190 metro 1000;
#X obj 143 114 loadbang;
#X msg 143 136 1;
#X msg 143 261 start 0;
#X msg 305 125 0;
#X obj 219 84 t f b;
#X msg 246 108 1;
#X obj 305 164 change;
#X obj 219 135 * 5000;
#X obj 243 6 s Channel-C;
#X obj 219 60 moses 0.9;
#X obj 219 157 + 500;
#X obj 531 212 loadbang;
#X obj 345 218 sig~ 1;
#X floatatom 397 173 5 0 0 0 - - -, f 5;
#X floatatom 507 192 5 0 0 0 - - -, f 5;
#X obj 468 242 sig~ 0;
#X obj 196 490 loadbang;
#X msg 196 512 1;
#X obj 396 246 sig~ 44100;
#X connect 1 0 57 0;
#X connect 2 0 62 0;
#X connect 3 0 60 0;
#X connect 4 0 73 0;
#X connect 5 0 55 0;
#X connect 6 0 51 0;
#X connect 6 0 54 0;
#X connect 7 0 74 0;
#X connect 8 0 63 0;
#X connect 9 0 46 0;
#X connect 9 0 12 0;
#X connect 9 1 47 0;
#X connect 9 1 13 0;
#X connect 14 0 12 0;
#X connect 14 0 13 0;
#X connect 15 0 28 0;
#X connect 16 0 17 0;
#X connect 17 0 83 0;
#X connect 18 0 16 0;
#X connect 18 0 77 0;
#X connect 19 0 18 0;
#X connect 20 0 15 0;
#X connect 21 0 45 0;
#X connect 22 0 20 1;
#X connect 23 0 24 0;
#X connect 24 0 29 0;
#X connect 25 0 23 1;
#X connect 26 0 22 0;
#X connect 26 0 28 1;
#X connect 27 0 25 0;
#X connect 27 0 29 1;
#X connect 28 0 56 0;
#X connect 29 0 56 0;
#X connect 30 0 34 0;
#X connect 31 0 30 0;
#X connect 32 0 33 0;
#X connect 33 0 35 0;
#X connect 34 0 56 0;
#X connect 35 0 56 0;
#X connect 36 0 27 1;
#X connect 37 0 31 1;
#X connect 38 0 32 1;
#X connect 39 0 37 0;
#X connect 39 0 34 1;
#X connect 40 0 38 0;
#X connect 40 0 35 1;
#X connect 41 0 39 1;
#X connect 42 0 40 1;
#X connect 43 0 26 1;
#X connect 44 0 43 0;
#X connect 44 1 36 0;
#X connect 44 2 41 0;
#X connect 44 3 42 0;
#X connect 45 0 20 0;
#X connect 45 0 23 0;
#X connect 45 0 31 0;
#X connect 45 0 32 0;
#X connect 46 0 0 0;
#X connect 47 0 0 1;
#X connect 48 0 47 1;
#X connect 48 0 46 1;
#X connect 49 0 0 0;
#X connect 49 0 0 1;
#X connect 50 0 49 1;
#X connect 51 0 52 0;
#X connect 51 1 52 1;
#X connect 52 0 53 0;
#X connect 53 0 48 0;
#X connect 54 0 50 0;
#X connect 56 0 49 0;
#X connect 58 0 18 0;
#X connect 58 0 78 0;
#X connect 59 0 58 0;
#X connect 60 0 59 0;
#X connect 61 0 79 0;
#X connect 61 0 80 0;
#X connect 63 0 61 0;
#X connect 64 0 67 0;
#X connect 65 0 66 0;
#X connect 66 0 64 0;
#X connect 67 0 14 0;
#X connect 68 0 71 0;
#X connect 69 0 72 0;
#X connect 69 1 70 0;
#X connect 70 0 71 0;
#X connect 71 0 64 0;
#X connect 72 0 75 0;
#X connect 74 0 69 0;
#X connect 74 1 68 0;
#X connect 75 0 64 1;
#X connect 76 0 44 0;
#X connect 77 0 21 0;
#X connect 80 0 26 0;
#X connect 80 0 27 0;
#X connect 80 0 39 0;
#X connect 80 0 40 0;
#X connect 81 0 82 0;
#X connect 82 0 50 0;
#X connect 83 0 45 1;
