#N canvas 932 98 517 796 10;
#X obj 78 37 r grain-size;
#X obj 78 81 * 1;
#X obj 63 294 *~;
#X msg 178 142 44100 \$1;
#X obj 63 732 outlet~;
#X obj 129 730 outlet~;
#X obj 178 164 /;
#X obj 63 264 abs~;
#X obj 63 490 *~;
#X obj 268 372 tabread~ hanning;
#X obj 268 350 *~ 64;
#X obj 268 417 pow~ 0.5;
#X obj 63 242 *~ 1;
#X obj 63 316 +~;
#X obj 129 490 *~;
#X obj 63 388 tabread~ buffer-L;
#X obj 129 418 tabread~ buffer-R;
#X obj 313 395 r hanning-pow;
#X obj 78 59 * 22050;
#X obj 178 186 sig~;
#X obj 252 210 s freq-\$1;
#X obj 337 236 *~ \$2;
#X obj 63 358 +~;
#X obj 178 212 phasor~ 1;
#X obj 353 469 loadbang;
#X obj 353 491 \$1;
#X obj 353 513 mod 2;
#X obj 63 641 *~ 1;
#X obj 129 641 *~ 1;
#X obj 63 691 *~ 0.2;
#X obj 129 691 *~ 0.2;
#X obj 78 133 line~;
#X obj 338 550 *;
#X obj 275 511 * 22050;
#X obj 338 598 line~;
#X obj 386 427 bng 15 250 50 0 empty empty empty 17 7 0 10 -262144
-1 -1;
#X obj 275 467 swap 1;
#X obj 275 489 -;
#X obj 269 634 / 3;
#X obj 269 657 swap 1;
#X obj 269 679 -;
#X obj 275 445 r start-offset;
#X obj 171 39 loadbang;
#X msg 171 61 1000;
#X obj 78 105 pack f f;
#X obj 409 530 loadbang;
#X obj 338 576 pack f f;
#X msg 409 552 40;
#X obj 337 214 inlet~;
#X connect 0 0 18 0;
#X connect 1 0 3 0;
#X connect 1 0 44 0;
#X connect 2 0 13 0;
#X connect 3 0 6 0;
#X connect 6 0 20 0;
#X connect 6 0 19 0;
#X connect 7 0 2 0;
#X connect 8 0 27 0;
#X connect 9 0 11 0;
#X connect 10 0 9 0;
#X connect 11 0 8 1;
#X connect 11 0 14 1;
#X connect 12 0 7 0;
#X connect 13 0 22 0;
#X connect 14 0 28 0;
#X connect 15 0 8 0;
#X connect 16 0 14 0;
#X connect 17 0 11 1;
#X connect 18 0 1 0;
#X connect 19 0 23 0;
#X connect 21 0 13 1;
#X connect 22 0 15 0;
#X connect 22 0 16 0;
#X connect 23 0 10 0;
#X connect 23 0 12 0;
#X connect 24 0 25 0;
#X connect 25 0 26 0;
#X connect 25 0 38 0;
#X connect 26 0 32 1;
#X connect 27 0 29 0;
#X connect 28 0 30 0;
#X connect 29 0 4 0;
#X connect 30 0 5 0;
#X connect 31 0 2 1;
#X connect 32 0 46 0;
#X connect 33 0 32 0;
#X connect 34 0 22 1;
#X connect 35 0 25 0;
#X connect 36 0 37 0;
#X connect 36 1 37 1;
#X connect 37 0 33 0;
#X connect 38 0 39 0;
#X connect 38 0 27 1;
#X connect 39 0 40 0;
#X connect 39 1 40 1;
#X connect 40 0 28 1;
#X connect 41 0 36 0;
#X connect 42 0 43 0;
#X connect 43 0 44 1;
#X connect 44 0 31 0;
#X connect 45 0 47 0;
#X connect 46 0 34 0;
#X connect 47 0 46 1;
#X connect 48 0 21 0;
