#N canvas 723 83 704 933 10;
#X obj 126 776 dac~;
#X obj 132 141 vsl 15 50 0 1 0 0 empty empty A 0 -9 0 10 -262130 -1
-1 0 1;
#X obj 206 140 vsl 15 50 0 1 0 0 empty empty B 0 -9 0 10 -262130 -1
-1 0 1;
#X obj 279 139 vsl 15 50 0 1 0 0 empty empty C 0 -9 0 10 -262130 -1
-1 0 1;
#X obj 352 141 vsl 15 50 0 1 0 0 empty empty D 0 -9 0 10 -262130 -1
-1 0 1;
#X obj 28 25 adc~;
#N canvas 0 22 450 278 (subpatch) 0;
#X array buffer-L 11025 float 0;
#X coords 0 1 11024 -1 100 70 1 0 0;
#X restore 200 -25 graph;
#N canvas 0 22 450 278 (subpatch) 0;
#X array buffer-R 11025 float 0;
#X coords 0 1 11024 -1 100 70 1 0 0;
#X restore 305 -25 graph;
#X obj 352 198 s Channel-D;
#X obj 132 198 s Channel-A;
#X obj 206 198 s Channel-B;
#X obj 279 198 s Channel-C;
#X obj 124 335 s grain-size;
#N canvas 295 221 413 648 record 1;
#X obj 44 154 t f f b;
#X obj 73 179 f;
#X obj 44 199 -;
#X obj 44 221 abs;
#X obj 44 265 sel 1;
#X obj 44 31 inlet~;
#X obj 44 243 > 10;
#X obj 44 549 tabwrite~ buffer-L;
#X obj 194 550 tabwrite~ buffer-R;
#X obj 194 31 inlet~;
#X msg 44 493 start;
#X msg 194 493 start;
#X obj 44 307 f;
#X obj 70 307 + 1;
#X obj 44 329 mod 2;
#X obj 44 371 sel 0 1;
#X obj 44 413 t b b;
#X obj 194 413 t b b;
#X obj 56 56 delwrite~ in-del-L 5;
#X obj 206 56 delwrite~ in-del-R 5;
#X obj 57 523 delread~ in-del-L 5;
#X obj 202 523 delread~ in-del-R 5;
#X obj 130 266 metro 1000;
#X obj 130 190 loadbang;
#X msg 130 212 1;
#X msg 292 201 0;
#X obj 206 160 t f b;
#X msg 233 184 1;
#X obj 292 240 change;
#X obj 206 211 * 5000;
#X obj 206 136 moses 0.9;
#X obj 206 233 + 500;
#X obj 206 114 r rewrite-freq;
#X connect 0 0 2 0;
#X connect 0 1 1 1;
#X connect 0 2 1 0;
#X connect 1 0 2 1;
#X connect 2 0 3 0;
#X connect 3 0 6 0;
#X connect 4 0 12 0;
#X connect 5 0 18 0;
#X connect 6 0 4 0;
#X connect 9 0 19 0;
#X connect 10 0 7 0;
#X connect 11 0 8 0;
#X connect 12 0 13 0;
#X connect 12 0 14 0;
#X connect 13 0 12 1;
#X connect 14 0 15 0;
#X connect 15 0 16 0;
#X connect 15 1 17 0;
#X connect 16 0 10 0;
#X connect 17 0 11 0;
#X connect 20 0 7 0;
#X connect 21 0 8 0;
#X connect 22 0 12 0;
#X connect 23 0 24 0;
#X connect 24 0 22 0;
#X connect 25 0 28 0;
#X connect 26 0 29 0;
#X connect 26 1 27 0;
#X connect 27 0 28 0;
#X connect 28 0 22 0;
#X connect 29 0 31 0;
#X connect 30 0 26 0;
#X connect 30 1 25 0;
#X connect 31 0 22 1;
#X connect 32 0 30 0;
#X restore 28 55 pd record;
#N canvas 0 22 450 278 (subpatch) 0;
#X array hanning 64 float 1;
#A 0 0 0.00240764 0.00960734 0.0215298 0.0380601 0.0590392 0.0842649
0.113494 0.146446 0.182803 0.222214 0.264301 0.308658 0.354857 0.402455
0.450991 0.5 0.549009 0.597545 0.645143 0.691342 0.735699 0.777786
0.817197 0.853554 0.886506 0.915736 0.940961 0.96194 0.978471 0.990393
0.997593 1 0.997592 0.990392 0.978469 0.961939 0.940959 0.915733 0.886503
0.853551 0.817194 0.777782 0.735695 0.691338 0.645139 0.597541 0.549004
0.499996 0.450987 0.40245 0.354853 0.308654 0.264297 0.222211 0.182799
0.146443 0.113491 0.084262 0.0590366 0.038058 0.0215281 0.00960615
0.00240701;
#X coords 0 1 63 0 100 70 1 0 0;
#X restore 410 -25 graph;
#X obj 336 359 +~ 1;
#X obj 336 337 osc~ 0.1;
#X obj 124 289 pow 2.5;
#X msg 458 563 1 \$1;
#X obj 458 585 /;
#X obj 458 607 * 1000;
#X obj 349 677 *~ 0.666;
#X obj 276 702 lop~ 12000;
#X obj 276 724 lop~ 12000;
#X obj 218 364 s hanning-pow;
#X floatatom 268 337 5 0 0 0 - - -, f 5;
#X obj 132 102 / 127;
#X obj 192 100 / 127;
#X obj 312 100 / 127;
#X obj 252 100 / 127;
#X floatatom 260 313 5 0 0 0 - - -, f 5;
#X obj 218 289 pow 3;
#X obj 218 311 * 10;
#X obj 218 333 + 0.1;
#X obj 124 311 + 0.078;
#X obj 336 290 pow 2;
#X obj 126 744 *~ 1;
#X obj 196 744 *~ 1;
#X obj 276 680 *~ 0.2;
#X obj 458 541 r freq-0;
#X obj 349 724 vd~ out-del 539;
#X obj 349 702 delwrite~ out-del 539;
#X obj 126 628 *~ 1;
#X obj 196 628 *~ 1;
#X obj 434 377 s start-offset;
#X obj 443 289 s rewrite-freq;
#X obj 443 264 r Channel-D;
#X obj 336 268 r Channel-C;
#X obj 132 80 f 74;
#X obj 192 80 f 71;
#X obj 252 80 f 65;
#X obj 312 80 f 2;
#X obj 336 312 * 3;
#X obj 218 267 r Channel-B;
#X obj 124 267 r Channel-A;
#X obj 458 629 pack f f;
#X obj 524 570 loadbang;
#X msg 524 592 60;
#X obj 458 659 line~;
#N canvas 0 22 495 793 grain 0;
#X obj 78 37 r grain-size;
#X obj 78 81 * 1;
#X obj 63 294 *~;
#X msg 178 142 44100 \$1;
#X obj 63 732 outlet~;
#X obj 129 730 outlet~;
#X obj 178 164 /;
#X obj 63 264 abs~;
#X obj 63 490 *~;
#X obj 268 372 tabread~ hanning;
#X obj 268 350 *~ 64;
#X obj 268 417 pow~ 0.5;
#X obj 63 242 *~ 1;
#X obj 63 316 +~;
#X obj 129 490 *~;
#X obj 63 388 tabread~ buffer-L;
#X obj 129 418 tabread~ buffer-R;
#X obj 313 395 r hanning-pow;
#X obj 78 59 * 22050;
#X obj 178 186 sig~;
#X obj 63 358 +~;
#X obj 178 212 phasor~ 1;
#X obj 353 469 loadbang;
#X obj 353 513 mod 2;
#X obj 63 641 *~ 1;
#X obj 129 641 *~ 1;
#X obj 63 691 *~ 0.2;
#X obj 129 691 *~ 0.2;
#X obj 78 133 line~;
#X obj 338 550 *;
#X obj 275 511 * 22050;
#X obj 338 598 line~;
#X obj 386 427 bng 15 250 50 0 empty empty empty 17 7 0 10 -262144
-1 -1;
#X obj 275 467 swap 1;
#X obj 275 489 -;
#X obj 269 634 / 3;
#X obj 269 657 swap 1;
#X obj 269 679 -;
#X obj 275 445 r start-offset;
#X obj 171 39 loadbang;
#X msg 171 61 1000;
#X obj 78 105 pack f f;
#X obj 409 530 loadbang;
#X obj 338 576 pack f f;
#X msg 409 552 40;
#X obj 337 214 inlet~;
#X obj 337 236 *~ 50;
#X obj 353 491 f 0;
#X obj 252 210 s freq-0;
#X connect 0 0 18 0;
#X connect 1 0 3 0;
#X connect 1 0 41 0;
#X connect 2 0 13 0;
#X connect 3 0 6 0;
#X connect 6 0 19 0;
#X connect 6 0 48 0;
#X connect 7 0 2 0;
#X connect 8 0 24 0;
#X connect 9 0 11 0;
#X connect 10 0 9 0;
#X connect 11 0 8 1;
#X connect 11 0 14 1;
#X connect 12 0 7 0;
#X connect 13 0 20 0;
#X connect 14 0 25 0;
#X connect 15 0 8 0;
#X connect 16 0 14 0;
#X connect 17 0 11 1;
#X connect 18 0 1 0;
#X connect 19 0 21 0;
#X connect 20 0 15 0;
#X connect 20 0 16 0;
#X connect 21 0 10 0;
#X connect 21 0 12 0;
#X connect 22 0 47 0;
#X connect 23 0 29 1;
#X connect 24 0 26 0;
#X connect 25 0 27 0;
#X connect 26 0 4 0;
#X connect 27 0 5 0;
#X connect 28 0 2 1;
#X connect 29 0 43 0;
#X connect 30 0 29 0;
#X connect 31 0 20 1;
#X connect 32 0 47 0;
#X connect 33 0 34 0;
#X connect 33 1 34 1;
#X connect 34 0 30 0;
#X connect 35 0 36 0;
#X connect 35 0 24 1;
#X connect 36 0 37 0;
#X connect 36 1 37 1;
#X connect 37 0 25 1;
#X connect 38 0 33 0;
#X connect 39 0 40 0;
#X connect 40 0 41 1;
#X connect 41 0 28 0;
#X connect 42 0 44 0;
#X connect 43 0 31 0;
#X connect 44 0 43 1;
#X connect 45 0 46 0;
#X connect 46 0 13 1;
#X connect 47 0 23 0;
#X connect 47 0 35 0;
#X restore 126 527 pd grain 0 50;
#X connect 1 0 9 0;
#X connect 2 0 10 0;
#X connect 3 0 11 0;
#X connect 4 0 8 0;
#X connect 5 0 13 0;
#X connect 5 1 13 1;
#X connect 15 0 59 0;
#X connect 16 0 15 0;
#X connect 17 0 34 0;
#X connect 18 0 19 0;
#X connect 19 0 20 0;
#X connect 20 0 55 0;
#X connect 21 0 41 0;
#X connect 22 0 23 0;
#X connect 23 0 36 0;
#X connect 23 0 37 0;
#X connect 23 0 41 0;
#X connect 25 0 24 0;
#X connect 26 0 1 0;
#X connect 27 0 2 0;
#X connect 28 0 4 0;
#X connect 29 0 3 0;
#X connect 31 0 32 0;
#X connect 32 0 33 0;
#X connect 33 0 24 0;
#X connect 33 0 30 0;
#X connect 34 0 12 0;
#X connect 35 0 52 0;
#X connect 36 0 0 0;
#X connect 37 0 0 1;
#X connect 38 0 22 0;
#X connect 39 0 18 0;
#X connect 40 0 38 0;
#X connect 42 0 36 0;
#X connect 42 0 21 0;
#X connect 43 0 37 0;
#X connect 43 0 21 0;
#X connect 46 0 45 0;
#X connect 47 0 35 0;
#X connect 47 0 44 0;
#X connect 48 0 26 0;
#X connect 49 0 27 0;
#X connect 50 0 29 0;
#X connect 51 0 28 0;
#X connect 52 0 16 0;
#X connect 53 0 31 0;
#X connect 54 0 17 0;
#X connect 55 0 58 0;
#X connect 56 0 57 0;
#X connect 57 0 55 1;
#X connect 58 0 40 0;
#X connect 59 0 42 0;
#X connect 59 1 43 0;
