#N canvas 401 152 457 384 10;
#X obj 5 144 dac~;
#X obj 61 60 *~ 0.8;
#X obj 180 60 delread~ del-1 400;
#X obj 138 -100 vsl 15 50 0 1 0 0 empty empty A 0 -9 0 10 -262130 -1
-1 0 1;
#X obj 215 -103 vsl 15 50 0 1 0 0 empty empty B 0 -9 0 10 -262130 -1
-1 0 1;
#X obj 124 -41 r Channel-A;
#X obj 305 -105 vsl 8 50 0 1 0 0 empty empty C 0 -9 0 10 -262130 -1
-1 4900 1;
#X obj 381 -104 vsl 15 50 0 1 0 0 empty empty D 0 -9 0 10 -262130 -1
-1 4900 1;
#X obj 363 -41 r Channel-D;
#X obj 284 -41 r Channel-C;
#X obj 197 -41 r Channel-B;
#X obj 197 5 + 50;
#X text 304 -133 HIP;
#X text 136 -128 FB;
#X text 214 -131 TIME;
#X text 377 -135 LOP;
#X obj 5 -37 adc~;
#X obj 46 5 *~ 0.6666;
#X obj 197 -18 * 950;
#X obj 180 38 delwrite~ del-1 1000;
#X obj 61 40 e_pitchshift;
#X msg 363 27 pitch \$1;
#X obj 363 -18 * 12;
#X obj 363 5 - 6;
#N canvas 0 22 450 300 test 1;
#X obj 56 -12 osc~ 400;
#X obj 115 -12 osc~ 440;
#X obj 173 -12 osc~ 480;
#X obj 231 -12 osc~ 520;
#X msg 56 -121 \$1 10;
#X obj 56 -96 line~ 0 10;
#X msg 152 -120 \$1 10;
#X obj 152 -95 line~ 0 10;
#X obj 56 -70 *~ 1000;
#X obj 58 -176 loadbang;
#X obj 152 -70 *~ 1000;
#X msg 265 -121 \$1 10;
#X obj 265 -96 line~ 0 10;
#X msg 361 -120 \$1 10;
#X obj 361 -95 line~ 0 10;
#X obj 265 -66 *~ 1000;
#X obj 361 -70 *~ 1000;
#X msg 58 -148 0.4;
#X msg 89 -148 0.44;
#X msg 128 -148 0.48;
#X msg 168 -148 0.52;
#X obj 56 48 *~;
#X obj 208 55 vline~;
#X msg 205 30 0 \, 0.25 5 \, 0 100 100;
#X obj 302 -4 inlet;
#X obj 56 76 outlet~;
#X connect 0 0 21 0;
#X connect 1 0 21 0;
#X connect 2 0 21 0;
#X connect 3 0 21 0;
#X connect 4 0 5 0;
#X connect 5 0 8 0;
#X connect 6 0 7 0;
#X connect 7 0 10 0;
#X connect 8 0 0 0;
#X connect 9 0 17 0;
#X connect 9 0 18 0;
#X connect 9 0 19 0;
#X connect 9 0 20 0;
#X connect 10 0 1 0;
#X connect 11 0 12 0;
#X connect 12 0 15 0;
#X connect 13 0 14 0;
#X connect 14 0 16 0;
#X connect 15 0 2 0;
#X connect 16 0 3 0;
#X connect 17 0 4 0;
#X connect 18 0 6 0;
#X connect 19 0 11 0;
#X connect 20 0 13 0;
#X connect 21 0 25 0;
#X connect 22 0 21 1;
#X connect 23 0 22 0;
#X connect 24 0 23 0;
#X restore 219 179 pd test;
#X obj 219 150 bng 15 250 50 0 empty empty empty 17 7 0 10 -262144
-1 -1;
#X obj 124 -18 * 0.588;
#X obj 124 4 + 0.4;
#X floatatom 156 86 5 0 0 0 - - -, f 5;
#X obj 245 115 loadbang;
#X obj 245 137 metro 1000;
#X obj 208 208 *~ 1;
#X connect 1 0 0 0;
#X connect 1 0 0 1;
#X connect 1 0 19 0;
#X connect 2 0 20 0;
#X connect 3 0 26 0;
#X connect 4 0 18 0;
#X connect 5 0 26 0;
#X connect 6 0 31 1;
#X connect 7 0 22 0;
#X connect 8 0 22 0;
#X connect 9 0 31 1;
#X connect 10 0 18 0;
#X connect 11 0 2 0;
#X connect 16 0 0 0;
#X connect 16 0 17 0;
#X connect 16 1 0 1;
#X connect 16 1 17 0;
#X connect 17 0 19 0;
#X connect 18 0 11 0;
#X connect 20 0 1 0;
#X connect 21 0 20 1;
#X connect 22 0 23 0;
#X connect 23 0 21 0;
#X connect 24 0 31 0;
#X connect 25 0 24 0;
#X connect 26 0 27 0;
#X connect 27 0 1 1;
#X connect 27 0 28 0;
#X connect 29 0 30 0;
#X connect 30 0 24 0;
#X connect 31 0 17 0;
#X connect 31 0 0 0;
#X connect 31 0 0 1;
