#N canvas 452 24 840 962 10;
#X obj 35 102 dac~;
#X obj 35 21 adc~;
#X obj 196 -87 vsl 15 50 0 1 0 0 empty empty A 0 -9 0 10 -262130 -1
-1 3600 1;
#X obj 269 -87 vsl 15 50 0 1 0 0 empty empty B 0 -9 0 10 -262130 -1
-1 2400 1;
#X obj 196 -2 r Channel-A;
#X obj 343 -86 vsl 15 50 0 1 0 0 empty empty C 0 -9 0 10 -262130 -1
-1 600 1;
#X obj 417 -85 vsl 15 50 0 1 0 0 empty empty D 0 -9 0 10 -262130 -1
-1 228 1;
#X obj 417 -1 r Channel-D;
#X obj 343 -2 r Channel-C;
#X obj 269 -2 r Channel-B;
#X obj 196 -28 s Channel-A;
#X obj 269 -28 s Channel-B;
#X obj 343 -28 s Channel-C;
#X obj 417 -27 s Channel-D;
#X obj 491 -1 r Channel-E;
#X obj 490 -86 vsl 15 50 0 1 0 0 empty empty E 0 -9 0 10 -262130 -1
-1 0 1;
#X obj 563 -86 vsl 15 50 0 1 0 0 empty empty F 0 -9 0 10 -262130 -1
-1 0 1;
#X obj 637 -85 vsl 15 50 0 1 0 0 empty empty G 0 -9 0 10 -262130 -1
-1 0 1;
#X obj 711 -84 vsl 15 50 0 1 0 0 empty empty H 0 -9 0 10 -262130 -1
-1 0 1;
#X obj 490 -27 s Channel-E;
#X obj 563 -27 s Channel-F;
#X obj 637 -27 s Channel-G;
#X obj 711 -26 s Channel-H;
#X obj 638 -1 r Channel-G;
#X obj 564 -1 r Channel-F;
#X obj 712 -1 r Channel-H;
#N canvas 0 22 495 428 timebase 0;
#X obj 104 156 loadbang;
#X msg 104 178 1;
#X obj 104 200 metro 62.5;
#X obj 161 87 r tempo;
#X msg 161 129 60000 \$1;
#X obj 161 151 /;
#X obj 224 86 t b f;
#X obj 224 62 r rate;
#X obj 161 109 f 120;
#X floatatom 291 60 5 0 0 0 - - -, f 5;
#X obj 161 173 / 32;
#X obj 104 244 s tick;
#X obj 181 200 s tick-ms;
#X obj 165 292 s pre-tick;
#X obj 165 268 f;
#X obj 191 268 + 1;
#X obj 104 222 t f b;
#X connect 0 0 1 0;
#X connect 1 0 2 0;
#X connect 2 0 16 0;
#X connect 3 0 8 0;
#X connect 4 0 5 0;
#X connect 5 0 10 0;
#X connect 6 0 8 0;
#X connect 6 1 10 1;
#X connect 7 0 6 0;
#X connect 8 0 4 0;
#X connect 9 0 6 0;
#X connect 10 0 2 1;
#X connect 10 0 12 0;
#X connect 14 0 15 0;
#X connect 14 0 13 0;
#X connect 15 0 14 1;
#X connect 16 0 11 0;
#X connect 16 1 14 0;
#X restore 34 -80 pd timebase;
#X obj 179 448 mod 4;
#X obj 179 812 s cv-note;
#X obj 196 20 * 200;
#X obj 196 42 + 40;
#X obj 196 64 s tempo;
#N canvas 0 22 699 528 rates 0;
#X obj 138 53 * 14;
#X obj 138 95 sel 0 1 2 3 4 5 6 7 8 9 10 11 12 13;
#X msg 138 117 0.25;
#X msg 148 137 0.5;
#X msg 158 157 0.75;
#X msg 168 177 1;
#X msg 178 197 1.5;
#X msg 188 217 2;
#X msg 198 237 3;
#X msg 208 257 4;
#X text 174 117 1/1;
#X text 184 137 1/2;
#X text 194 157 1/3;
#X text 204 177 1/4;
#X text 214 197 1/6;
#X text 224 217 1/8;
#X text 234 237 1/12;
#X text 244 257 1/16;
#X msg 218 277 6;
#X msg 228 298 8;
#X text 254 277 1/24;
#X text 264 298 1/32;
#X msg 238 318 12;
#X msg 248 338 16;
#X text 274 318 1/48;
#X text 284 338 1/64;
#X text 294 358 1/96;
#X text 304 378 1/128;
#X msg 258 358 24;
#X msg 268 378 32;
#X obj 138 29 inlet;
#X obj 138 413 outlet;
#X floatatom 251 47 5 0 0 0 - - -, f 5;
#X obj 138 75 int;
#X connect 0 0 32 0;
#X connect 0 0 33 0;
#X connect 1 0 2 0;
#X connect 1 1 3 0;
#X connect 1 2 4 0;
#X connect 1 3 5 0;
#X connect 1 4 6 0;
#X connect 1 5 7 0;
#X connect 1 6 8 0;
#X connect 1 7 9 0;
#X connect 1 8 18 0;
#X connect 1 9 19 0;
#X connect 1 10 22 0;
#X connect 1 11 23 0;
#X connect 1 12 28 0;
#X connect 1 13 29 0;
#X connect 2 0 31 0;
#X connect 3 0 31 0;
#X connect 4 0 31 0;
#X connect 5 0 31 0;
#X connect 6 0 31 0;
#X connect 7 0 31 0;
#X connect 8 0 31 0;
#X connect 9 0 31 0;
#X connect 18 0 31 0;
#X connect 19 0 31 0;
#X connect 22 0 31 0;
#X connect 23 0 31 0;
#X connect 28 0 31 0;
#X connect 29 0 31 0;
#X connect 30 0 0 0;
#X connect 33 0 1 0;
#X restore 269 20 pd rates;
#X obj 269 42 s rate;
#X obj 179 116 r tick;
#X obj 179 298 f;
#X obj 206 298 + 1;
#N canvas 0 22 467 555 modes 1;
#X obj 138 30 inlet;
#X obj 138 52 * 15;
#X obj 138 74 int;
#X obj 138 95 sel 0 1 2 3 4 5 6 7 8 9 10 11 12 13;
#X msg 178 197 1.5;
#X msg 188 217 2;
#X msg 198 237 3;
#X msg 208 257 4;
#X text 274 117 1/1;
#X text 284 137 1/2;
#X text 294 157 1/3;
#X text 304 177 1/4;
#X text 314 197 1/6;
#X text 324 217 1/8;
#X text 334 237 1/12;
#X text 344 257 1/16;
#X msg 218 277 6;
#X msg 228 298 8;
#X text 354 277 1/24;
#X text 364 298 1/32;
#X msg 238 318 12;
#X text 374 318 1/48;
#X text 384 338 1/64;
#X text 394 358 1/96;
#X text 404 378 1/128;
#X obj 138 413 symbol;
#X obj 138 435 outlet;
#X msg 148 137 down;
#X msg 158 157 updown;
#X msg 268 378 random;
#X msg 138 117 up;
#X msg 258 358 random-once;
#X msg 248 338 random-other;
#X msg 167 177 converge;
#X connect 0 0 1 0;
#X connect 1 0 2 0;
#X connect 2 0 3 0;
#X connect 3 0 30 0;
#X connect 3 1 27 0;
#X connect 3 2 28 0;
#X connect 3 3 33 0;
#X connect 3 4 4 0;
#X connect 3 5 5 0;
#X connect 3 6 6 0;
#X connect 3 7 7 0;
#X connect 3 8 16 0;
#X connect 3 9 17 0;
#X connect 3 10 20 0;
#X connect 3 11 32 0;
#X connect 3 12 31 0;
#X connect 3 13 29 0;
#X connect 4 0 25 0;
#X connect 5 0 25 0;
#X connect 6 0 25 0;
#X connect 7 0 25 0;
#X connect 16 0 25 0;
#X connect 17 0 25 0;
#X connect 20 0 25 0;
#X connect 25 0 26 0;
#X connect 27 0 25 0;
#X connect 28 0 25 0;
#X connect 29 0 25 0;
#X connect 30 0 25 0;
#X connect 31 0 25 0;
#X connect 32 0 25 0;
#X connect 33 0 25 0;
#X restore 343 20 pd modes;
#X obj 343 42 s style;
#X obj 221 226 r style;
#X msg 221 270 1;
#X msg 252 270 -1;
#X obj 179 582 * 1;
#X obj 179 674 int;
#X obj 179 644 + 64;
#X obj 194 560 r spread;
#X obj 200 622 r base-note;
#X obj 206 366 r steps;
#X msg 179 160 \$2 \$1;
#X obj 224 96 r style;
#X obj 179 138 pack f s;
#X obj 206 418 * 1;
#X obj 206 398 f 4;
#X obj 256 298 r style;
#X msg 266 342 2;
#X msg 321 347 1;
#X obj 266 364 t b f;
#X obj 179 480 - 0;
#X obj 269 435 r steps;
#X obj 254 457 f 4;
#X msg 313 457 0;
#X obj 179 512 abs;
#X obj 256 320 sel updown;
#X obj 221 248 sel up down;
#N canvas 544 272 457 576 random-once 0;
#X obj 66 46 inlet;
#X msg 110 238 add2 \$1;
#X msg 66 293 0 1 4 7 6 3 5 2;
#X msg 220 170 set;
#X msg 93 406 set \, adddollar \$1;
#X obj 93 383 + 1;
#X obj 66 454 outlet;
#N canvas 0 22 450 300 128bangs 0;
#X obj 83 21 inlet;
#X obj 83 103 t b b b b b b b b;
#X obj 83 125 t b b b b b b b b;
#X obj 83 83 t b b;
#X obj 83 187 f;
#X obj 109 187 + 1;
#X obj 83 43 t b b;
#X msg 130 82 0;
#X obj 83 209 outlet;
#X connect 0 0 6 0;
#X connect 1 0 2 0;
#X connect 1 1 2 0;
#X connect 1 2 2 0;
#X connect 1 3 2 0;
#X connect 1 4 2 0;
#X connect 1 5 2 0;
#X connect 1 6 2 0;
#X connect 1 7 2 0;
#X connect 2 0 4 0;
#X connect 2 1 4 0;
#X connect 2 2 4 0;
#X connect 2 3 4 0;
#X connect 2 4 4 0;
#X connect 2 5 4 0;
#X connect 2 6 4 0;
#X connect 2 7 4 0;
#X connect 3 0 1 0;
#X connect 3 1 1 0;
#X connect 4 0 5 0;
#X connect 4 0 8 0;
#X connect 5 0 4 1;
#X connect 6 0 3 0;
#X connect 6 1 7 0;
#X connect 7 0 4 1;
#X restore 110 140 pd 128bangs;
#X obj 110 53 r style;
#X obj 110 75 sel random-once;
#X msg 110 184 bang;
#X msg 66 429 \$1;
#X obj 93 335 f;
#X obj 120 335 + 1;
#X obj 93 357 mod 4;
#X obj 66 264 t b b;
#X obj 181 236 t b b;
#X msg 208 258 clear;
#X obj 110 100 t b b b;
#X obj 155 334 r steps;
#X obj 240 76 t b f;
#X obj 240 51 r steps;
#X obj 110 162 moses 4;
#X obj 110 212 c_urn 4;
#X connect 0 0 15 0;
#X connect 1 0 2 0;
#X connect 2 0 11 0;
#X connect 3 0 2 0;
#X connect 4 0 11 0;
#X connect 5 0 4 0;
#X connect 7 0 22 0;
#X connect 8 0 9 0;
#X connect 9 0 18 0;
#X connect 10 0 23 0;
#X connect 11 0 6 0;
#X connect 12 0 13 0;
#X connect 12 0 14 0;
#X connect 13 0 12 1;
#X connect 14 0 5 0;
#X connect 15 0 2 0;
#X connect 15 1 12 0;
#X connect 16 0 23 0;
#X connect 16 1 17 0;
#X connect 17 0 23 1;
#X connect 18 0 7 0;
#X connect 18 1 3 0;
#X connect 18 2 17 0;
#X connect 19 0 14 1;
#X connect 20 0 18 0;
#X connect 20 1 22 1;
#X connect 20 1 23 2;
#X connect 21 0 20 0;
#X connect 22 0 10 0;
#X connect 23 0 1 0;
#X connect 23 1 16 0;
#X restore 355 241 pd random-once;
#X obj 571 135 s steps;
#X obj 417 21 * 127;
#X obj 417 43 int;
#X obj 417 65 + 1;
#X obj 417 87 s steps;
#X msg 571 112 8;
#X obj 179 728 pipe 0;
#X obj 281 606 mod 2;
#X obj 281 628 sel 0 1;
#X msg 281 650 0;
#X obj 369 566 r tick-ms;
#X obj 369 588 / 2;
#X obj 317 655 f 15;
#X obj 369 610 f 15;
#X obj 431 566 r swing-amt;
#X obj 431 588 t b f;
#X obj 369 632 * 0;
#X obj 491 41 s swing-amt;
#X obj 491 21 * 2;
#X obj 179 750 t f b;
#X obj 242 812 s cv-gate;
#N canvas 0 22 305 276 random-other 0;
#X obj 87 112 c_urn 4;
#X obj 126 136 t b b;
#X msg 106 91 clear;
#X obj 150 90 r steps;
#X obj 87 58 inlet;
#X obj 87 174 outlet;
#X connect 0 0 5 0;
#X connect 0 1 1 0;
#X connect 1 0 0 0;
#X connect 1 1 2 0;
#X connect 2 0 0 1;
#X connect 3 0 0 2;
#X connect 4 0 0 0;
#X restore 399 262 pd random-other;
#N canvas 0 22 450 300 random 0;
#X obj 122 151 random 4;
#X obj 167 127 r steps;
#X msg 122 128 bang;
#X obj 122 105 inlet;
#X obj 122 173 outlet;
#X connect 0 0 4 0;
#X connect 1 0 0 1;
#X connect 2 0 0 0;
#X connect 3 0 2 0;
#X restore 311 220 pd random;
#X obj 281 562 r pre-tick;
#X obj 179 182 route up down updown random random-once random-other
converge;
#X obj 179 224 t b;
#N canvas 0 22 394 590 converge 0;
#X obj 188 265 mod 2;
#X obj 188 243 r pre-tick;
#X obj 102 241 mod 4;
#X obj 129 159 r steps;
#X obj 129 191 f 4;
#X obj 127 414 -;
#X obj 102 313 pack f f;
#X msg 102 335 \$2 \$1;
#X obj 102 357 route 1 0;
#X obj 102 263 / 2;
#X obj 102 285 int;
#X obj 129 213 / 1;
#X obj 183 360 r steps;
#X obj 127 392 swap 4;
#X obj 102 117 f;
#X obj 129 117 + 1;
#X obj 102 94 t b;
#X obj 102 71 inlet;
#X obj 102 459 outlet;
#X connect 0 0 6 1;
#X connect 1 0 0 0;
#X connect 2 0 9 0;
#X connect 3 0 4 0;
#X connect 4 0 11 0;
#X connect 5 0 18 0;
#X connect 6 0 7 0;
#X connect 7 0 8 0;
#X connect 8 0 18 0;
#X connect 8 1 13 0;
#X connect 9 0 10 0;
#X connect 10 0 6 0;
#X connect 11 0 2 1;
#X connect 12 0 13 1;
#X connect 13 0 5 0;
#X connect 13 1 5 1;
#X connect 14 0 15 0;
#X connect 14 0 2 0;
#X connect 15 0 14 1;
#X connect 16 0 14 0;
#X connect 17 0 16 0;
#X restore 443 296 pd converge;
#X connect 1 0 0 0;
#X connect 1 1 0 1;
#X connect 2 0 10 0;
#X connect 3 0 11 0;
#X connect 4 0 29 0;
#X connect 5 0 12 0;
#X connect 6 0 13 0;
#X connect 7 0 66 0;
#X connect 8 0 37 0;
#X connect 9 0 32 0;
#X connect 14 0 83 0;
#X connect 15 0 19 0;
#X connect 16 0 20 0;
#X connect 17 0 21 0;
#X connect 18 0 22 0;
#X connect 27 0 57 0;
#X connect 29 0 30 0;
#X connect 30 0 31 0;
#X connect 32 0 33 0;
#X connect 34 0 50 0;
#X connect 35 0 36 0;
#X connect 36 0 35 1;
#X connect 37 0 38 0;
#X connect 39 0 63 0;
#X connect 40 0 36 1;
#X connect 41 0 36 1;
#X connect 42 0 44 0;
#X connect 43 0 71 0;
#X connect 44 0 43 0;
#X connect 45 0 42 1;
#X connect 46 0 44 1;
#X connect 47 0 52 0;
#X connect 48 0 89 0;
#X connect 49 0 50 1;
#X connect 50 0 48 0;
#X connect 51 0 27 1;
#X connect 52 0 51 0;
#X connect 53 0 62 0;
#X connect 54 0 56 0;
#X connect 55 0 56 0;
#X connect 56 0 52 0;
#X connect 56 1 51 1;
#X connect 57 0 61 0;
#X connect 58 0 59 1;
#X connect 59 0 57 1;
#X connect 60 0 57 1;
#X connect 61 0 42 0;
#X connect 62 0 54 0;
#X connect 62 0 59 0;
#X connect 62 1 55 0;
#X connect 62 1 60 0;
#X connect 63 0 40 0;
#X connect 63 1 41 0;
#X connect 64 0 42 0;
#X connect 66 0 67 0;
#X connect 67 0 68 0;
#X connect 68 0 69 0;
#X connect 70 0 65 0;
#X connect 71 0 84 0;
#X connect 72 0 73 0;
#X connect 73 0 74 0;
#X connect 73 1 77 0;
#X connect 74 0 71 1;
#X connect 75 0 76 0;
#X connect 76 0 78 0;
#X connect 77 0 71 1;
#X connect 78 0 81 0;
#X connect 79 0 80 0;
#X connect 80 0 78 0;
#X connect 80 1 81 1;
#X connect 81 0 77 1;
#X connect 83 0 82 0;
#X connect 84 0 28 0;
#X connect 86 0 42 0;
#X connect 87 0 42 0;
#X connect 88 0 72 0;
#X connect 89 0 90 0;
#X connect 89 1 90 0;
#X connect 89 2 90 0;
#X connect 89 3 87 0;
#X connect 89 4 64 0;
#X connect 89 5 86 0;
#X connect 89 6 91 0;
#X connect 90 0 35 0;
#X connect 91 0 42 0;
