#N canvas 150 224 360 334 10;
#X obj 51 197 e_pitchshift;
#X obj 51 48 adc~;
#X obj 51 227 *~ 0.5;
#X obj 51 267 dac~;
#X msg 206 138 pitch \$1;
#X obj 206 47 r Channel-A;
#X msg 147 108 delay 0;
#X obj 206 77 * 24;
#X obj 206 99 - 12;
#X msg 120 138 size 512;
#X obj 120 48 loadbang;
#X obj 120 78 t b b;
#X obj 120 168 t a;
#X connect 0 0 2 0;
#X connect 1 0 0 0;
#X connect 2 0 3 0;
#X connect 2 0 3 1;
#X connect 4 0 12 0;
#X connect 5 0 7 0;
#X connect 6 0 12 0;
#X connect 7 0 8 0;
#X connect 8 0 4 0;
#X connect 9 0 12 0;
#X connect 10 0 11 0;
#X connect 11 0 9 0;
#X connect 11 1 6 0;
#X connect 12 0 0 1;
