#N canvas 237 89 457 384 10;
#X obj 35 102 dac~;
#X obj 91 68 *~ 0.8;
#X obj 91 26 hip~ 0;
#X obj 170 48 delread~ del-1 400;
#X obj 91 48 lop~ 20000;
#X obj 138 -112 vsl 15 50 0 1 0 0 empty empty A 0 -9 0 10 -262130 -1
-1 0 1;
#X obj 215 -115 vsl 15 50 0 1 0 0 empty empty B 0 -9 0 10 -262130 -1
-1 0 1;
#X obj 124 -53 r Channel-A;
#X obj 305 -117 vsl 8 50 0 1 0 0 empty empty C 0 -9 0 10 -262130 -1
-1 0 1;
#X obj 381 -116 vsl 15 50 0 1 0 0 empty empty D 0 -9 0 10 -262130 -1
-1 0 1;
#X obj 363 -53 r Channel-D;
#X obj 124 -30 * 0.98;
#X obj 284 -29 * 1000;
#X obj 284 -53 r Channel-C;
#X obj 197 -53 r Channel-B;
#X obj 197 -7 + 50;
#X obj 363 -30 * 16000;
#X obj 363 -7 + 400;
#X text 304 -145 HIP;
#X text 136 -140 FB;
#X text 214 -143 TIME;
#X text 377 -147 LOP;
#X obj 35 -49 adc~;
#X obj 76 -7 *~ 0.6666;
#X obj 197 -30 * 950;
#X obj 170 26 delwrite~ del-1 1000;
#X connect 1 0 0 0;
#X connect 1 0 0 1;
#X connect 1 0 25 0;
#X connect 2 0 4 0;
#X connect 3 0 2 0;
#X connect 4 0 1 0;
#X connect 5 0 11 0;
#X connect 6 0 24 0;
#X connect 7 0 11 0;
#X connect 8 0 12 0;
#X connect 9 0 16 0;
#X connect 10 0 16 0;
#X connect 11 0 1 1;
#X connect 12 0 2 1;
#X connect 13 0 12 0;
#X connect 14 0 24 0;
#X connect 15 0 3 0;
#X connect 16 0 17 0;
#X connect 17 0 4 1;
#X connect 22 0 0 0;
#X connect 22 0 23 0;
#X connect 22 1 0 1;
#X connect 22 1 23 0;
#X connect 23 0 25 0;
#X connect 24 0 15 0;
