#N canvas 570 91 597 412 10;
#X obj 35 242 dac~;
#X obj 162 -101 vsl 15 50 0 1 0 0 empty empty A 0 -9 0 10 -262130 -1
-1 0 1;
#X obj 242 -102 vsl 15 50 0 1 0 0 empty empty B 0 -9 0 10 -262130 -1
-1 0 1;
#X obj 322 -101 vsl 15 50 0 1 0 0 empty empty C 0 -9 0 10 -262130 -1
-1 0 1;
#X obj 402 -101 vsl 15 50 0 1 0 0 empty empty D 0 -9 0 10 -262130 -1
-1 0 1;
#X obj 35 -35 adc~;
#X obj 35 88 osc~;
#X obj 35 150 *~;
#X text 112 125 CV 0-1;
#X obj 56 124 +~ 0.043;
#N canvas 0 22 264 252 cv-to-freq 0;
#X obj 64 75 *~ -4.4;
#X obj 43 103 sig~ 2;
#X obj 43 148 *~ 440;
#X obj 64 53 +~ 0.0585;
#X obj 43 126 pow~;
#X text 94 105 CV to Freq;
#X obj 64 30 inlet~;
#X obj 43 170 outlet~;
#X connect 0 0 4 1;
#X connect 1 0 4 0;
#X connect 2 0 7 0;
#X connect 3 0 0 0;
#X connect 4 0 2 0;
#X connect 6 0 3 0;
#X restore 35 35 pd cv-to-freq;
#N canvas 0 22 482 289 freq-to-cv 0;
#X obj 54 86 /~ 440;
#X obj 75 107 sig~ 2;
#X obj 54 140 log~;
#X obj 54 186 -~ 0.0585;
#X obj 54 164 /~ 4.4;
#X text 126 144 Freq to CV ([log~] not yet implemendted in Heavy!)
;
#X obj 54 60 inlet~;
#X obj 54 218 outlet~;
#X connect 0 0 2 0;
#X connect 1 0 2 1;
#X connect 2 0 4 0;
#X connect 3 0 7 0;
#X connect 4 0 3 0;
#X connect 6 0 0 0;
#X restore 56 197 pd freq-to-cv;
#X obj 162 -15 r Channel-A;
#X obj 402 -15 r Channel-D;
#X obj 322 -15 r Channel-C;
#X obj 242 -15 r Channel-B;
#X obj 162 -45 s Channel-A;
#X obj 242 -45 s Channel-B;
#X obj 322 -45 s Channel-C;
#X obj 402 -45 s Channel-D;
#X obj 482 -101 vsl 15 50 0 1 0 0 empty empty E 0 -9 0 10 -262130 -1
-1 0 1;
#X obj 482 -45 s Channel-E;
#X obj 482 -15 r Channel-E;
#N canvas 0 22 363 531 timebase 0;
#X obj 75 116 snapshot~;
#X obj 43 42 loadbang;
#X obj 75 84 metro 1;
#X obj 75 160 change;
#X obj 75 182 sel 1;
#X obj 43 468 s tick;
#X obj 43 446 metro 100;
#X obj 75 204 f;
#X obj 101 204 + 1;
#X obj 75 226 mod 2;
#X obj 75 248 sel 0 1;
#X obj 109 304 f;
#X obj 136 304 + 1;
#X msg 75 273 0;
#X obj 94 398 f;
#X obj 94 420 / 8;
#X obj 75 138 < 0;
#X obj 119 371 t b f;
#X obj 119 327 r rate;
#X obj 119 349 change;
#X obj 165 67 inlet~;
#X text 123 160 Looks for zero-crossings;
#X text 123 398 Measures time between zero-crossings;
#X connect 0 0 16 0;
#X connect 1 0 2 0;
#X connect 1 0 6 0;
#X connect 2 0 0 0;
#X connect 2 0 11 0;
#X connect 3 0 4 0;
#X connect 4 0 7 0;
#X connect 6 0 5 0;
#X connect 7 0 8 0;
#X connect 7 0 9 0;
#X connect 8 0 7 1;
#X connect 9 0 10 0;
#X connect 10 0 13 0;
#X connect 10 1 14 0;
#X connect 11 0 12 0;
#X connect 11 0 14 1;
#X connect 12 0 11 1;
#X connect 13 0 11 1;
#X connect 14 0 15 0;
#X connect 15 0 6 1;
#X connect 16 0 3 0;
#X connect 17 0 14 0;
#X connect 17 1 15 1;
#X connect 18 0 19 0;
#X connect 19 0 17 0;
#X connect 20 0 0 0;
#X restore 70 0 pd timebase;
#X connect 1 0 16 0;
#X connect 2 0 17 0;
#X connect 3 0 18 0;
#X connect 4 0 19 0;
#X connect 5 0 10 0;
#X connect 5 0 23 0;
#X connect 5 1 9 0;
#X connect 6 0 7 0;
#X connect 7 0 0 0;
#X connect 9 0 7 1;
#X connect 10 0 6 0;
#X connect 10 0 11 0;
#X connect 11 0 0 1;
#X connect 20 0 21 0;
