#N canvas 229 22 1388 957 10;
#X obj 48 707 dac~;
#X obj 123 -58 vsl 15 50 0 1 0 0 empty empty A 0 -9 0 10 -262130 -1
-1 0 1;
#X obj 196 -58 vsl 15 50 0 1 0 0 empty empty B 0 -9 0 10 -262130 -1
-1 0 1;
#X obj 123 27 r Channel-A;
#X obj 270 -57 vsl 15 50 0 1 0 0 empty empty C 0 -9 0 10 -262130 -1
-1 0 1;
#X obj 344 -56 vsl 15 50 0 1 0 0 empty empty D 0 -9 0 10 -262130 -1
-1 0 1;
#X obj 344 28 r Channel-D;
#X obj 270 27 r Channel-C;
#X obj 196 27 r Channel-B;
#X obj 35 -49 adc~;
#X obj 862 107 vradio 15 1 0 12 empty empty empty 0 -8 0 10 -262144
-1 -1 11;
#X text 880 273 C;
#X text 880 243 D;
#X text 880 213 E;
#X text 880 198 F;
#X text 880 168 G;
#X text 880 138 A;
#X text 880 108 B;
#X obj 922 110 vradio 15 1 0 7 empty empty empty 0 -8 0 10 -262144
-1 -1 5;
#X obj 862 292 swap 12;
#X obj 862 314 -;
#X text 940 111 Ionion;
#X text 940 125 Dorian;
#X text 940 141 Phrygian;
#X text 940 155 Lydian;
#X text 940 171 Mixolydian;
#X text 940 185 Aeolian;
#X text 940 201 Locrian;
#X obj 922 220 sel 0 1 2 3 4 5 6;
#X msg 922 242 0;
#X msg 932 262 2;
#X msg 942 282 4;
#X msg 952 302 5;
#X msg 962 322 7;
#X msg 972 342 9;
#X msg 982 362 11;
#X obj 862 471 + 12;
#X obj 82 374 f;
#X obj 108 374 + 1;
#X obj 862 450 -;
#X obj 862 537 * 25;
#X obj 862 420 f;
#X obj 922 386 t b f;
#X obj 862 336 - 1;
#X obj 862 493 mod 12;
#X obj 506 641 tabread scales;
#X obj 506 570 mod 12;
#X obj 506 617 +;
#X obj 506 592 + 12;
#X obj 506 546 t f f;
#X obj 552 570 div 12;
#X obj 506 663 +;
#X obj 552 592 * 12;
#X obj 862 515 + 1;
#X msg 1042 438 notes 7 \, intervals 0 1 3 5 6 8 10;
#X msg 1042 478 notes 7 \, intervals 0 2 4 5 7 9 10;
#X msg 1042 458 notes 7 \, intervals 0 2 3 5 7 8 10;
#X msg 1042 498 notes 7 \, intervals 0 2 4 6 7 9 11;
#X msg 1042 518 notes 7 \, intervals 0 1 3 5 7 8 10;
#X msg 1042 539 notes 7 \, intervals 0 2 3 5 7 9 10;
#X obj 829 618 notes 12 0 0 1 2 3 4 5 6 7 8 9 10 11;
#X text 1252 459 Aeolian;
#X msg 1042 418 notes 7 \, intervals 0 2 4 5 7 9 11;
#X text 1250 418 Ionion;
#X text 1249 499 Lydian;
#X text 1249 478 Mixolydian;
#X text 1252 538 Dorian;
#X text 1249 519 Phrygian;
#X text 1249 438 Locrian;
#X obj 123 49 * 7;
#X obj 123 71 int;
#X obj 123 1 s Channel-A;
#X obj 196 1 s Channel-B;
#X obj 270 1 s Channel-C;
#X obj 344 2 s Channel-D;
#X obj 123 93 s mode;
#X obj 196 49 * 12;
#X obj 196 71 int;
#X obj 196 93 s key;
#X obj 862 39 r key;
#X obj 862 63 swap 12;
#X obj 862 85 -;
#X obj 922 86 r mode;
#N canvas 0 22 182 296 onset 0;
#X obj 50 117 t f f b;
#X obj 79 142 f;
#X obj 50 162 -;
#X obj 50 184 abs;
#X obj 50 228 sel 1;
#X obj 50 95 env~ 128;
#X obj 50 47 hip~ 1000;
#X obj 50 206 > 10;
#X obj 50 73 *~ 1;
#X obj 50 25 inlet~;
#X obj 50 250 s onset;
#X connect 0 0 2 0;
#X connect 0 1 1 1;
#X connect 0 2 1 0;
#X connect 1 0 2 1;
#X connect 2 0 3 0;
#X connect 3 0 7 0;
#X connect 4 0 10 0;
#X connect 5 0 0 0;
#X connect 6 0 8 0;
#X connect 7 0 4 0;
#X connect 8 0 5 0;
#X connect 9 0 6 0;
#X restore 40 0 pd onset;
#X obj 270 49 * 4;
#X obj 270 71 int;
#X obj 270 113 s scale-mode;
#X obj 141 251 r scale-mode;
#X obj 344 72 int;
#X obj 344 50 * 120;
#X obj 344 94 s range;
#X obj 336 471 sig~;
#X obj 293 428 hsl 128 15 -2.972 3.028 0 0 empty empty empty -2 -8
0 10 -262144 -1 -1 5174 1;
#X obj 291 541 snapshot~;
#X obj 291 446 t b f;
#N canvas 0 22 585 330 synth 0;
#X obj 106 84 mtof;
#X obj 106 136 t f b;
#X obj 106 158 sig~;
#X obj 106 180 osc~;
#X obj 106 202 *~;
#X obj 151 180 vline~;
#X msg 151 158 0 1 \, 1 5 1 \, 0 100 120;
#X obj 106 224 *~ 0.3;
#X obj 106 246 outlet~;
#X obj 106 60 r note-out-1;
#X obj 296 84 mtof;
#X obj 296 136 t f b;
#X obj 296 158 sig~;
#X obj 296 180 osc~;
#X obj 296 202 *~;
#X obj 341 180 vline~;
#X msg 341 158 0 1 \, 1 5 1 \, 0 100 120;
#X obj 296 224 *~ 0.3;
#X obj 296 60 r note-out-2;
#X connect 0 0 1 0;
#X connect 1 0 2 0;
#X connect 1 1 6 0;
#X connect 2 0 3 0;
#X connect 3 0 4 0;
#X connect 4 0 7 0;
#X connect 5 0 4 1;
#X connect 6 0 5 0;
#X connect 7 0 8 0;
#X connect 9 0 0 0;
#X connect 10 0 11 0;
#X connect 11 0 12 0;
#X connect 11 1 16 0;
#X connect 12 0 13 0;
#X connect 13 0 14 0;
#X connect 14 0 17 0;
#X connect 15 0 14 1;
#X connect 16 0 15 0;
#X connect 17 0 8 0;
#X connect 18 0 10 0;
#X restore 48 683 pd synth;
#X obj 219 398 r range;
#X obj 418 72 int;
#X obj 418 28 r Channel-E;
#X obj 417 -57 vsl 15 50 0 1 0 0 empty empty E 0 -9 0 10 -262130 -1
-1 3000 1;
#X obj 490 -57 vsl 15 50 0 1 0 0 empty empty F 0 -9 0 10 -262130 -1
-1 2000 1;
#X obj 564 -56 vsl 15 50 0 1 0 0 empty empty G 0 -9 0 10 -262130 -1
-1 3000 1;
#X obj 638 -55 vsl 15 50 0 1 0 0 empty empty H 0 -9 0 10 -262130 -1
-1 0 1;
#X obj 417 2 s Channel-E;
#X obj 490 2 s Channel-F;
#X obj 564 2 s Channel-G;
#X obj 638 3 s Channel-H;
#N canvas 0 22 807 249 scales 0;
#N canvas 0 22 450 278 (subpatch) 0;
#X array scales 300 float 3;
#A 0 -12 -11 -10 -10 -8 -7 -6 -5 -4 -3 -2 -1 0 1 2 3 4 5 6 7 8 9 10
11 12 -12 -12 -10 -10 -8 -7 -7 -5 -5 -3 -3 -1 0 0 2 2 4 5 5 7 7 9 9
11 12 -12 -11 -11 -11 -9 -7 -6 -6 -4 -4 -2 -2 0 1 1 3 3 5 6 6 8 8 10
10 12 -11 -11 -10 -10 -8 -8 -6 -5 -5 -3 -3 -1 -1 1 2 2 4 4 6 7 7 9
9 11 11 -12 -12 -10 -10 -9 -7 -7 -5 -4 -4 -2 -2 0 0 2 3 3 5 5 7 8 8
10 10 12 -11 -11 -9 -9 -8 -8 -6 -6 -4 -3 -3 -1 -1 1 1 3 4 4 6 6 8 9
9 11 11 -12 -12 -10 -10 -8 -7 -7 -5 -5 -3 -2 -2 0 0 2 2 4 5 5 7 7 9
10 10 12 -11 -11 -11 -11 -9 -7 -6 -6 -4 -4 -2 -1 -1 1 1 3 3 5 6 6 8
8 10 11 11 -12 -12 -10 -10 -8 -8 -6 -5 -5 -3 -3 -1 0 0 2 2 4 4 6 7
7 9 9 11 12 -12 -11 -11 -11 -9 -7 -7 -5 -4 -4 -2 -2 0 1 1 3 3 5 5 7
8 8 10 10 12 -11 -11 -10 -10 -8 -8 -6 -6 -4 -3 -3 -1 -1 1 2 2 4 4 6
6 8 9 9 11 11 -12 -12 -10 -10 -9 -7 -7 -5 -5 -3 -2 -2 0 0 2 3 3 5 5
7 7 9 10 10 12;
#X coords 0 12 300 -12 700 140 1 0 0;
#X restore 44 -76 graph;
#X restore 122 -99 pd scales;
#X msg 82 296 \$2 \$1;
#X obj 168 423 random 14;
#X obj 82 426 mod 14;
#X text 270 140 0 - Conform;
#X text 270 160 1 - Sequential;
#X text 270 180 2 - Random;
#X obj 336 516 -~ 0.028;
#X obj 336 494 *~ -4.4;
#X floatatom 391 475 5 0 0 0 - - -, f 5;
#X obj 82 249 r onset;
#X obj 40 -22 *~ 1;
#X obj 82 274 pack f f;
#X obj 82 340 t b;
#X obj 168 376 t b;
#X obj 103 507 * 12;
#X obj 103 485 r octave;
#X obj 418 94 s octave;
#X obj 418 50 * 10;
#X obj 82 528 + 12;
#X obj 291 566 pow 2;
#X obj 291 588 * 440;
#X obj 131 686 / 440;
#X obj 131 708 pow 0.5;
#X obj 131 730 + 0.028;
#X obj 131 752 / -4.4;
#X obj 291 609 ftom;
#X obj 291 631 int;
#X obj 82 318 route 1 2;
#X obj 363 251 r scale-mode;
#X msg 297 298 \$2 \$1;
#X obj 297 276 pack f f;
#X obj 297 320 route 0;
#X obj 291 675 s cv-note;
#X obj 297 251 r cv-note;
#X obj 291 653 change;
#X obj 82 551 s concat-scales;
#X obj 829 590 r concat-scales;
#X obj 506 410 r conform-scales;
#X obj 297 342 s conform-scales;
#X text 187 698 Freq to CV;
#X text 333 575 CV to Freq;
#X obj 577 92 int;
#X obj 577 114 s double-interval;
#X obj 491 72 int;
#X obj 491 94 s double-mode;
#X obj 577 50 * 48;
#X obj 577 72 - 24;
#X obj 506 777 s note-out-1;
#X obj 969 745 notes 12 0 0 1 2 3 4 5 6 7 8 9 10 11;
#X obj 969 692 spigot;
#X obj 1002 645 r double-mode;
#X obj 969 777 s note-out-2;
#X obj 829 692 spigot;
#X obj 1015 690 r double-interval;
#X obj 829 714 + 12;
#X obj 969 714 + 7;
#X obj 656 641 tabread scales;
#X obj 656 570 mod 12;
#X obj 656 617 +;
#X obj 656 592 + 12;
#X obj 656 546 t f f;
#X obj 702 570 div 12;
#X obj 656 663 +;
#X obj 702 592 * 12;
#X obj 656 501 spigot;
#X obj 689 454 r double-mode;
#X obj 527 713 spigot;
#X obj 702 499 r double-interval;
#X obj 527 735 + 12;
#X obj 656 523 + 7;
#X obj 560 668 r double-mode;
#X obj 507 254 f;
#X obj 532 254 + 1;
#X obj 507 276 mod 48;
#X obj 507 298 + 48;
#X obj 511 205 tgl 15 0 empty empty empty 17 7 0 10 -262144 -1 -1 1
1;
#X floatatom 877 569 5 0 0 0 - - -, f 5;
#X obj 507 232 metro 500;
#X obj 577 28 r Channel-G;
#X obj 491 28 r Channel-F;
#X obj 689 476 == 1;
#X obj 560 690 == 2;
#X obj 862 669 == 2;
#X obj 1002 667 == 1;
#X obj 491 50 * 3;
#X floatatom 702 521 5 0 0 0 - - -, f 5;
#X floatatom 570 205 5 0 0 0 - - -, f 5;
#X text 491 117 0 - Off;
#X text 491 137 1 - Chromatic;
#X text 491 157 2 - Scale;
#X connect 1 0 71 0;
#X connect 2 0 72 0;
#X connect 3 0 69 0;
#X connect 4 0 73 0;
#X connect 5 0 74 0;
#X connect 6 0 89 0;
#X connect 7 0 84 0;
#X connect 8 0 76 0;
#X connect 9 0 118 0;
#X connect 9 1 118 0;
#X connect 10 0 19 0;
#X connect 18 0 28 0;
#X connect 19 0 20 0;
#X connect 19 1 20 1;
#X connect 20 0 43 0;
#X connect 28 0 29 0;
#X connect 28 0 62 0;
#X connect 28 1 30 0;
#X connect 28 1 59 0;
#X connect 28 2 31 0;
#X connect 28 2 58 0;
#X connect 28 3 32 0;
#X connect 28 3 57 0;
#X connect 28 4 33 0;
#X connect 28 4 55 0;
#X connect 28 5 34 0;
#X connect 28 5 56 0;
#X connect 28 6 35 0;
#X connect 28 6 54 0;
#X connect 29 0 42 0;
#X connect 30 0 42 0;
#X connect 31 0 42 0;
#X connect 32 0 42 0;
#X connect 33 0 42 0;
#X connect 34 0 42 0;
#X connect 35 0 42 0;
#X connect 36 0 44 0;
#X connect 37 0 38 0;
#X connect 37 0 110 0;
#X connect 38 0 37 1;
#X connect 39 0 36 0;
#X connect 40 0 47 1;
#X connect 40 0 166 1;
#X connect 41 0 39 0;
#X connect 42 0 41 0;
#X connect 42 1 39 1;
#X connect 43 0 41 0;
#X connect 44 0 53 0;
#X connect 45 0 51 0;
#X connect 46 0 48 0;
#X connect 47 0 45 0;
#X connect 48 0 47 0;
#X connect 49 0 46 0;
#X connect 49 1 50 0;
#X connect 50 0 52 0;
#X connect 51 0 155 0;
#X connect 51 0 174 0;
#X connect 52 0 51 1;
#X connect 53 0 40 0;
#X connect 54 0 60 1;
#X connect 54 0 156 1;
#X connect 55 0 60 1;
#X connect 55 0 156 1;
#X connect 56 0 60 1;
#X connect 56 0 156 1;
#X connect 57 0 60 1;
#X connect 57 0 156 1;
#X connect 58 0 60 1;
#X connect 58 0 156 1;
#X connect 59 0 60 1;
#X connect 59 0 156 1;
#X connect 60 0 155 0;
#X connect 60 0 160 0;
#X connect 62 0 60 1;
#X connect 62 0 156 1;
#X connect 69 0 70 0;
#X connect 70 0 75 0;
#X connect 76 0 77 0;
#X connect 77 0 78 0;
#X connect 79 0 80 0;
#X connect 80 0 81 0;
#X connect 80 1 81 1;
#X connect 81 0 10 0;
#X connect 82 0 18 0;
#X connect 84 0 85 0;
#X connect 85 0 86 0;
#X connect 87 0 119 1;
#X connect 88 0 90 0;
#X connect 89 0 88 0;
#X connect 91 0 115 0;
#X connect 92 0 94 0;
#X connect 93 0 127 0;
#X connect 94 0 93 0;
#X connect 94 1 91 0;
#X connect 94 1 116 0;
#X connect 95 0 0 0;
#X connect 95 0 0 1;
#X connect 96 0 110 1;
#X connect 96 0 109 1;
#X connect 97 0 124 0;
#X connect 98 0 125 0;
#X connect 99 0 103 0;
#X connect 100 0 104 0;
#X connect 101 0 105 0;
#X connect 102 0 106 0;
#X connect 108 0 135 0;
#X connect 109 0 126 0;
#X connect 110 0 126 0;
#X connect 114 0 93 0;
#X connect 115 0 114 0;
#X connect 117 0 119 0;
#X connect 118 0 83 0;
#X connect 119 0 108 0;
#X connect 120 0 37 0;
#X connect 121 0 109 0;
#X connect 122 0 126 1;
#X connect 123 0 122 0;
#X connect 125 0 97 0;
#X connect 126 0 143 0;
#X connect 127 0 128 0;
#X connect 128 0 133 0;
#X connect 129 0 130 0;
#X connect 130 0 131 0;
#X connect 131 0 132 0;
#X connect 133 0 134 0;
#X connect 134 0 142 0;
#X connect 135 0 120 0;
#X connect 135 1 121 0;
#X connect 136 0 138 1;
#X connect 137 0 139 0;
#X connect 138 0 137 0;
#X connect 139 0 146 0;
#X connect 141 0 138 0;
#X connect 142 0 140 0;
#X connect 144 0 60 0;
#X connect 144 0 157 0;
#X connect 144 0 184 0;
#X connect 145 0 49 0;
#X connect 145 0 172 0;
#X connect 149 0 150 0;
#X connect 151 0 152 0;
#X connect 153 0 154 0;
#X connect 154 0 149 0;
#X connect 156 0 159 0;
#X connect 157 0 163 0;
#X connect 158 0 190 0;
#X connect 158 0 191 0;
#X connect 160 0 162 0;
#X connect 161 0 162 1;
#X connect 161 0 163 1;
#X connect 162 0 159 0;
#X connect 163 0 156 0;
#X connect 164 0 170 0;
#X connect 165 0 167 0;
#X connect 166 0 164 0;
#X connect 167 0 166 0;
#X connect 168 0 165 0;
#X connect 168 1 169 0;
#X connect 169 0 171 0;
#X connect 170 0 159 0;
#X connect 171 0 170 1;
#X connect 172 0 177 0;
#X connect 173 0 188 0;
#X connect 174 0 176 0;
#X connect 175 0 176 1;
#X connect 175 0 177 1;
#X connect 175 0 193 0;
#X connect 176 0 159 0;
#X connect 177 0 168 0;
#X connect 178 0 189 0;
#X connect 179 0 180 0;
#X connect 179 0 181 0;
#X connect 180 0 179 1;
#X connect 181 0 182 0;
#X connect 182 0 146 0;
#X connect 183 0 185 0;
#X connect 185 0 179 0;
#X connect 186 0 153 0;
#X connect 187 0 192 0;
#X connect 188 0 172 1;
#X connect 189 0 174 1;
#X connect 190 0 160 1;
#X connect 191 0 157 1;
#X connect 192 0 151 0;
#X connect 194 0 185 1;
